<svg xmlns="http://www.w3.org/2000/svg" width="79" height="79" viewBox="0 0 79 79" fill="none"><g clip-path="url(#clip0_28_625)"><path d="M23.8256 33.9917L38.995 18.2829L54.1724 34L62.999 24.8592L38.995 0L14.999 24.8509L23.8256 33.9917Z" fill="#F3BA2F"></path><path d="M17.8534 39.498L8.92676 30.5713L-0.000361828 39.4984L8.92632 48.4251L17.8534 39.498Z" fill="#F3BA2F"></path><path d="M23.8354 46.0074L38.9993 61.2545L54.1707 46L62.999 54.8672L62.9947 54.8721L38.9993 79L15.0114 54.8802L14.999 54.8678L23.8354 46.0074Z" fill="#F3BA2F"></path><path d="M70.0719 48.4293L78.999 39.5022L70.0723 30.5755L61.1452 39.5026L70.0719 48.4293Z" fill="#F3BA2F"></path><path d="M48.991 39.9954H48.9947L39.999 31L33.3511 37.6477H33.3505L32.5871 38.4117L31.0114 39.9873L30.999 39.9997L31.0114 40.0127L39.999 49L48.9947 40.0046L48.999 39.9997L48.991 39.9954Z" fill="#F3BA2F"></path></g><defs><clipPath id="clip0_28_625"><rect width="79" height="79" fill="white"></rect></clipPath></defs></svg>