<svg xmlns="http://www.w3.org/2000/svg" width="937" height="187" viewBox="0 0 937 187" fill="none"><path d="M142 44H0V152.766L33.234 186H142V44Z" fill="#3F98F6"></path><path d="M934 45V66.2425H908.609V141H882.132V66.2425H857V45H934Z" fill="white"></path><path d="M812.611 142C801.582 142 792.519 139.379 785.435 134.138C778.351 128.807 774.541 121.216 774 111.367H802.117C802.388 114.71 803.374 117.15 805.083 118.686C806.784 120.222 808.982 120.991 811.67 120.991C814.094 120.991 816.067 120.403 817.594 119.228C819.206 117.963 820.012 116.246 820.012 114.078C820.012 111.276 818.716 109.107 816.112 107.571C813.507 106.035 809.292 104.318 803.465 102.42C797.276 100.342 792.255 98.354 788.394 96.4564C784.629 94.4684 781.31 91.6219 778.441 87.917C775.663 84.1217 774.271 79.1968 774.271 73.1424C774.271 66.9977 775.792 61.7565 778.841 57.4191C781.896 52.9912 786.112 49.6478 791.488 47.3886C796.87 45.1295 802.975 44 809.788 44C820.824 44 829.61 46.6206 836.159 51.8617C842.798 57.0124 846.337 64.2867 846.788 73.6846H818.129C818.039 70.793 817.143 68.6242 815.441 67.1784C813.823 65.7325 811.716 65.0096 809.118 65.0096C807.145 65.0096 805.527 65.597 804.27 66.7718C803.013 67.9465 802.388 69.6182 802.388 71.787C802.388 73.5942 803.059 75.1756 804.406 76.5311C805.843 77.7962 807.59 78.9257 809.653 79.9197C811.716 80.8234 814.764 81.9981 818.8 83.444C824.814 85.5223 829.745 87.6007 833.6 89.6791C837.551 91.6671 840.909 94.5136 843.694 98.2185C846.563 101.833 848 106.442 848 112.044C848 117.737 846.563 122.843 843.694 127.361C840.909 131.879 836.829 135.449 831.447 138.069C826.155 140.689 819.876 142 812.611 142Z" fill="white"></path><path d="M760 45V141H733V45H760Z" fill="white"></path><path d="M717 141H690.286L654.716 87.3489V141H628V45H654.716L690.286 99.3319V45H717V141Z" fill="white"></path><path d="M612 45V141H585V45H612Z" fill="white"></path><path d="M523.068 142C514.122 142 505.898 139.921 498.398 135.765C490.898 131.517 484.934 125.689 480.506 118.279C476.168 110.779 474 102.33 474 92.9322C474 83.5343 476.168 75.1304 480.506 67.7206C484.934 60.2203 490.898 54.3919 498.398 50.2351C505.898 46.0784 514.122 44 523.068 44C532.104 44 540.327 46.0784 547.737 50.2351C555.237 54.3919 561.156 60.2203 565.493 67.7206C569.831 75.1304 572 83.5343 572 92.9322C572 102.33 569.831 110.779 565.493 118.279C561.156 125.689 555.237 131.517 547.737 135.765C540.237 139.921 532.014 142 523.068 142ZM523.068 117.33C529.845 117.33 535.177 115.116 539.062 110.689C543.038 106.261 545.026 100.342 545.026 92.9322C545.026 85.3416 543.038 79.3776 539.062 75.0401C535.177 70.6122 529.845 68.3983 523.068 68.3983C516.2 68.3983 510.823 70.6122 506.938 75.0401C503.052 79.3776 501.109 85.3416 501.109 92.9322C501.109 100.432 503.052 106.396 506.938 110.824C510.823 115.162 516.2 117.33 523.068 117.33Z" fill="white"></path><path d="M370 92.9332C370 83.65 371.934 75.3934 375.803 68.1632C379.763 60.8438 385.342 55.1758 392.541 51.159C399.74 47.053 408.019 45 417.377 45C429.255 45 439.243 48.1688 447.342 54.5063C455.441 60.7546 460.66 69.279 463 80.0796H434.519C432.809 76.5092 430.425 73.7867 427.366 71.9122C424.396 70.0377 420.932 69.1005 416.972 69.1005C410.853 69.1005 405.949 71.2874 402.259 75.6612C398.66 79.9457 396.861 85.7031 396.861 92.9332C396.861 100.253 398.66 106.099 402.259 110.473C405.949 114.758 410.853 116.9 416.972 116.9C420.932 116.9 424.396 115.963 427.366 114.088C430.425 112.213 432.809 109.491 434.519 105.921H463C460.66 116.721 455.441 125.29 447.342 131.628C439.243 137.876 429.255 141 417.377 141C408.019 141 399.74 138.992 392.541 134.975C385.342 130.869 379.763 125.201 375.803 117.971C371.934 110.652 370 102.306 370 92.9332Z" fill="white"></path><path d="M362 45V66.2425H336.274V141H309.452V66.2425H284V45H362Z" fill="white"></path><path d="M273 45V141H247V45H273Z" fill="white"></path><path d="M215.539 91.7064C221.191 92.9773 225.658 95.7915 228.94 100.149C232.314 104.416 234 109.318 234 114.855C234 123.026 231.173 129.425 225.521 134.055C219.869 138.685 211.937 141 201.726 141H154V45H200.222C210.068 45 217.772 47.1787 223.333 51.5362C228.986 55.8936 231.812 62.0213 231.812 69.9191C231.812 75.5475 230.307 80.268 227.299 84.0808C224.382 87.8028 220.462 90.3446 215.539 91.7064ZM180.803 83.1277H194.342C201.088 83.1277 204.461 80.3588 204.461 74.8213C204.461 69.1021 201.088 66.2425 194.342 66.2425H180.803V83.1277ZM196.393 119.485C203.14 119.485 206.513 116.671 206.513 111.043C206.513 108.138 205.601 105.913 203.778 104.37C202.045 102.827 199.539 102.055 196.256 102.055H180.803V119.485H196.393Z" fill="white"></path><path d="M935 159L926.387 176.104V187H923.696V176.104L915 159H918.042L925.038 173.541L932.003 159H935Z" fill="#606378"></path><path d="M907.907 167.314C907.122 165.51 905.912 164.098 904.284 163.078C902.688 162.033 900.799 161.51 898.621 161.51C896.574 161.51 894.737 161.981 893.109 162.922C891.48 163.863 890.192 165.209 889.25 166.961C888.302 168.686 887.831 170.699 887.831 173C887.831 175.301 888.302 177.327 889.25 179.079C890.192 180.83 891.48 182.176 893.109 183.118C894.737 184.059 896.574 184.53 898.621 184.53C900.537 184.53 902.25 184.124 903.774 183.314C905.324 182.477 906.559 181.301 907.475 179.784C908.417 178.242 908.959 176.451 909.09 174.412H897.516V172.177H912V174.176C911.869 176.582 911.215 178.765 910.032 180.726C908.855 182.66 907.266 184.19 905.271 185.314C903.303 186.438 901.086 187 898.621 187C896.071 187 893.762 186.412 891.69 185.235C889.617 184.032 887.975 182.373 886.772 180.255C885.588 178.111 885 175.693 885 173C885 170.307 885.588 167.902 886.772 165.785C887.975 163.64 889.617 161.981 891.69 160.804C893.762 159.601 896.071 159 898.621 159C901.557 159 904.127 159.732 906.331 161.196C908.534 162.66 910.136 164.699 911.137 167.314H907.907Z" fill="#606378"></path><path d="M867.5 187C864.979 187 862.685 186.412 860.63 185.235C858.576 184.032 856.955 182.373 855.756 180.255C854.583 178.111 854 175.693 854 173C854 170.307 854.583 167.902 855.756 165.785C856.955 163.64 858.576 161.981 860.63 160.804C862.685 159.601 864.979 159 867.5 159C870.047 159 872.348 159.601 874.402 160.804C876.457 161.981 878.071 163.64 879.244 165.785C880.41 167.902 881 170.307 881 173C881 175.693 880.41 178.111 879.244 180.255C878.071 182.373 876.457 184.032 874.402 185.235C872.348 186.412 870.047 187 867.5 187ZM867.5 184.608C869.529 184.608 871.35 184.137 872.963 183.196C874.571 182.255 875.848 180.909 876.781 179.157C877.721 177.379 878.187 175.327 878.187 173C878.187 170.673 877.721 168.634 876.781 166.882C875.848 165.131 874.571 163.784 872.963 162.843C871.35 161.902 869.529 161.431 867.5 161.431C865.471 161.431 863.65 161.902 862.036 162.843C860.423 163.784 859.152 165.131 858.213 166.882C857.279 168.634 856.813 170.673 856.813 173C856.813 175.327 857.279 177.379 858.213 179.157C859.152 180.909 860.423 182.255 862.036 183.196C863.65 184.137 865.471 184.608 867.5 184.608Z" fill="#606378"></path><path d="M840.615 184.717H850V187H838V159H840.615V184.717Z" fill="#606378"></path><path d="M818.997 187C816.382 187 814.008 186.412 811.877 185.235C809.746 184.032 808.059 182.373 806.822 180.255C805.605 178.111 805 175.693 805 173C805 170.307 805.605 167.902 806.822 165.785C808.059 163.64 809.746 161.981 811.877 160.804C814.008 159.601 816.382 159 818.997 159C821.645 159 824.032 159.601 826.163 160.804C828.294 161.981 829.968 163.64 831.178 165.785C832.395 167.902 833 170.307 833 173C833 175.693 832.395 178.111 831.178 180.255C829.968 182.373 828.294 184.032 826.163 185.235C824.032 186.412 821.645 187 818.997 187ZM818.997 184.608C821.101 184.608 822.99 184.137 824.664 183.196C826.338 182.255 827.662 180.909 828.63 179.157C829.605 177.379 830.089 175.327 830.089 173C830.089 170.673 829.605 168.634 828.63 166.882C827.662 165.131 826.338 163.784 824.664 162.843C822.99 161.902 821.101 161.431 818.997 161.431C816.892 161.431 815.003 161.902 813.336 162.843C811.662 163.784 810.338 165.131 809.37 166.882C808.395 168.634 807.911 170.673 807.911 173C807.911 175.327 808.395 177.379 809.37 179.157C810.338 180.909 811.662 182.255 813.336 183.196C815.003 184.137 816.892 184.608 818.997 184.608Z" fill="#606378"></path><path d="M800 187H797.206L781.787 163.446V187H779V159H781.787L797.206 182.513V159H800V187Z" fill="#606378"></path><path d="M773 159V187H770.305V173.901H755.695V187H753V159H755.695V171.578H770.305V159H773Z" fill="#606378"></path><path d="M721 173.02C721 170.323 721.585 167.914 722.756 165.794C723.934 163.647 725.54 161.985 727.576 160.806C729.612 159.602 731.883 159 734.387 159C737.444 159 740.053 159.733 742.219 161.199C744.411 162.639 746.005 164.681 747 167.325H743.787C743.006 165.466 741.803 164.014 740.183 162.967C738.589 161.919 736.657 161.396 734.387 161.396C732.377 161.396 730.562 161.867 728.949 162.809C727.355 163.752 726.1 165.113 725.189 166.893C724.272 168.648 723.817 170.69 723.817 173.02C723.817 175.35 724.272 177.392 725.189 179.146C726.1 180.9 727.355 182.248 728.949 183.191C730.562 184.133 732.377 184.604 734.387 184.604C736.657 184.604 738.589 184.094 740.183 183.073C741.803 182.026 743.006 180.586 743.787 178.753H747C746.005 181.371 744.411 183.4 742.219 184.84C740.027 186.28 737.418 187 734.387 187C731.883 187 729.612 186.411 727.576 185.233C725.54 184.028 723.934 182.366 722.756 180.245C721.585 178.125 721 175.716 721 173.02Z" fill="#606378"></path><path d="M704.683 161.32V171.76H714.853V174.08H704.683V184.68H716V187H702V159H716V161.32H704.683Z" fill="#606378"></path><path d="M697 159V161.323H689.391V187H686.648V161.323H679V159H697Z" fill="#606378"></path><path d="M662.436 186.535L658.715 182.773C657.381 184.221 655.963 185.294 654.448 185.992C652.932 186.664 651.222 187 649.316 187C647.495 187 645.874 186.664 644.463 185.992C643.054 185.294 641.958 184.324 641.175 183.083C640.392 181.843 640 180.407 640 178.778C640 176.866 640.548 175.198 641.644 173.776C642.741 172.354 644.346 171.242 646.46 170.44C645.547 169.432 644.882 168.502 644.463 167.648C644.046 166.769 643.837 165.825 643.837 164.817C643.837 163.085 644.463 161.689 645.717 160.629C646.97 159.543 648.639 159 650.727 159C652.685 159 654.279 159.556 655.508 160.667C656.731 161.779 657.303 163.227 657.225 165.011H654.487C654.513 163.847 654.149 162.93 653.388 162.257C652.659 161.585 651.736 161.249 650.61 161.249C649.413 161.249 648.431 161.585 647.677 162.257C646.944 162.904 646.578 163.744 646.578 164.778C646.578 165.606 646.8 166.407 647.241 167.183C647.716 167.959 648.444 168.876 649.439 169.936L658.442 178.972C658.806 178.481 659.3 177.706 659.931 176.645L662.436 172.496H665.369L662.396 177.576C661.694 178.791 660.985 179.878 660.283 180.834L666 186.535H662.436ZM649.316 184.635C650.857 184.635 652.23 184.337 653.433 183.743C654.656 183.148 655.82 182.217 656.913 180.95L648.184 172.186C644.555 173.504 642.741 175.676 642.741 178.701C642.741 179.838 643.015 180.86 643.563 181.765C644.138 182.644 644.921 183.342 645.913 183.859C646.905 184.376 648.041 184.635 649.316 184.635Z" fill="#606378"></path><path d="M616.215 187C614.419 187 612.831 186.687 611.451 186.059C610.097 185.431 609.03 184.556 608.249 183.431C607.468 182.307 607.052 181.053 607 179.667H609.889C610.019 181 610.605 182.176 611.646 183.196C612.687 184.19 614.21 184.687 616.215 184.687C618.063 184.687 619.52 184.216 620.588 183.275C621.681 182.307 622.228 181.092 622.228 179.628C622.228 178.451 621.928 177.51 621.329 176.804C620.731 176.072 619.989 175.536 619.104 175.196C618.219 174.83 616.996 174.438 615.434 174.02C613.612 173.523 612.167 173.039 611.099 172.568C610.032 172.098 609.122 171.366 608.367 170.373C607.612 169.379 607.234 168.033 607.234 166.333C607.234 164.921 607.599 163.667 608.328 162.569C609.056 161.444 610.084 160.569 611.412 159.941C612.74 159.314 614.262 159 615.981 159C618.505 159 620.535 159.627 622.071 160.882C623.633 162.111 624.531 163.706 624.766 165.667H621.798C621.616 164.543 621.004 163.549 619.963 162.686C618.921 161.797 617.516 161.353 615.746 161.353C614.106 161.353 612.74 161.797 611.646 162.686C610.553 163.549 610.006 164.739 610.006 166.255C610.006 167.405 610.306 168.333 610.904 169.039C611.503 169.745 612.245 170.281 613.13 170.647C614.041 171.013 615.264 171.405 616.8 171.824C618.571 172.32 620.002 172.817 621.095 173.314C622.189 173.785 623.112 174.516 623.867 175.51C624.622 176.503 625 177.837 625 179.51C625 180.791 624.661 182.006 623.985 183.157C623.308 184.307 622.305 185.235 620.978 185.941C619.651 186.647 618.063 187 616.215 187Z" fill="#606378"></path><path d="M603 159L595.317 186.96H592.29L585.461 163.12L578.477 186.96L575.528 187L568 159H570.91L577.119 183.52L584.064 159H587.091L593.843 183.52L600.09 159H603Z" fill="#606378"></path><path d="M552.685 161.32V171.76H562.849V174.08H552.685V184.68H564V187H550V159H564V161.32H552.685Z" fill="#606378"></path><path d="M543 187H540.343L525.657 163.446V187H523V159H525.657L540.343 182.513V159H543V187Z" fill="#606378"></path><path d="M507 159L498.384 176.104V187H495.692V176.104L487 159H490.038L497.038 173.541L504 159H507Z" fill="#606378"></path><path d="M457 173.02C457 170.323 457.587 167.914 458.762 165.794C459.936 163.647 461.542 161.985 463.579 160.806C465.615 159.602 467.886 159 470.392 159C473.446 159 476.057 159.733 478.223 161.199C480.416 162.639 482.008 164.681 483 167.325H479.789C479.006 165.466 477.805 164.014 476.187 162.967C474.594 161.919 472.663 161.396 470.392 161.396C468.382 161.396 466.567 161.867 464.949 162.809C463.356 163.752 462.103 165.113 461.19 166.893C460.276 168.648 459.819 170.69 459.819 173.02C459.819 175.35 460.276 177.392 461.19 179.146C462.103 180.9 463.356 182.248 464.949 183.191C466.567 184.133 468.382 184.604 470.392 184.604C472.663 184.604 474.594 184.094 476.187 183.073C477.805 182.026 479.006 180.586 479.789 178.753H483C482.008 181.371 480.416 183.4 478.223 184.84C476.031 186.28 473.42 187 470.392 187C467.886 187 465.615 186.411 463.579 185.233C461.542 184.028 459.936 182.366 458.762 180.245C457.587 178.125 457 175.716 457 173.02Z" fill="#606378"></path><path d="M452 187H449.21L433.79 163.446V187H431V159H433.79L449.21 182.513V159H452V187Z" fill="#606378"></path><path d="M413.685 161.32V171.76H423.849V174.08H413.685V184.68H425V187H411V159H425V161.32H413.685Z" fill="#606378"></path><path d="M402.684 187L395.855 175.303H390.763V187H388V159H396.29C399.368 159 401.698 159.747 403.276 161.243C404.881 162.739 405.684 164.702 405.684 167.131C405.684 169.161 405.106 170.897 403.947 172.339C402.816 173.755 401.132 174.676 398.895 175.103L406 187H402.684ZM390.763 173.02H396.329C398.487 173.02 400.105 172.486 401.184 171.418C402.29 170.349 402.842 168.921 402.842 167.131C402.842 165.289 402.316 163.874 401.263 162.886C400.21 161.871 398.553 161.363 396.29 161.363H390.763V173.02Z" fill="#606378"></path><path d="M378.684 187L371.855 175.303H366.763V187H364V159H372.29C375.369 159 377.697 159.747 379.277 161.243C380.882 162.739 381.685 164.702 381.685 167.131C381.685 169.161 381.106 170.897 379.947 172.339C378.816 173.755 377.131 174.676 374.895 175.103L382 187H378.684ZM366.763 173.02H372.329C374.487 173.02 376.105 172.486 377.185 171.418C378.29 170.349 378.842 168.921 378.842 167.131C378.842 165.289 378.316 163.874 377.263 162.886C376.211 161.871 374.553 161.363 372.29 161.363H366.763V173.02Z" fill="#606378"></path><path d="M340.756 159V176.451C340.756 179.2 341.399 181.236 342.685 182.559C343.998 183.88 345.782 184.541 348.04 184.541C350.297 184.541 352.055 183.893 353.315 182.598C354.601 181.276 355.245 179.227 355.245 176.451V159H358V176.411C358 179.928 357.069 182.572 355.205 184.343C353.367 186.114 350.966 187 348 187C345.034 187 342.619 186.114 340.756 184.343C338.919 182.572 338 179.928 338 176.411V159H340.756Z" fill="#606378"></path><path d="M306 173.02C306 170.323 306.587 167.914 307.762 165.794C308.937 163.647 310.542 161.985 312.579 160.806C314.615 159.602 316.886 159 319.392 159C322.446 159 325.057 159.733 327.223 161.199C329.416 162.639 331.009 164.681 332 167.325H328.789C328.007 165.466 326.806 164.014 325.187 162.967C323.595 161.919 321.663 161.396 319.392 161.396C317.382 161.396 315.568 161.867 313.949 162.809C312.357 163.752 311.103 165.113 310.19 166.893C309.276 168.648 308.819 170.69 308.819 173.02C308.819 175.35 309.276 177.392 310.19 179.146C311.103 180.9 312.357 182.248 313.949 183.191C315.568 184.133 317.382 184.604 319.392 184.604C321.663 184.604 323.595 184.094 325.187 183.073C326.806 182.026 328.007 180.586 328.789 178.753H332C331.009 181.371 329.416 183.4 327.223 184.84C325.031 186.28 322.42 187 319.392 187C316.886 187 314.615 186.411 312.579 185.233C310.542 184.028 308.937 182.366 307.762 180.245C306.587 178.125 306 175.716 306 173.02Z" fill="#606378"></path><path d="M288.5 187C285.977 187 283.688 186.412 281.633 185.235C279.578 184.032 277.952 182.373 276.756 180.255C275.585 178.111 275 175.693 275 173C275 170.307 275.585 167.902 276.756 165.785C277.952 163.64 279.578 161.981 281.633 160.804C283.688 159.601 285.977 159 288.5 159C291.049 159 293.351 159.601 295.406 160.804C297.461 161.981 299.073 163.64 300.244 165.785C301.415 167.902 302 170.307 302 173C302 175.693 301.415 178.111 300.244 180.255C299.073 182.373 297.461 184.032 295.406 185.235C293.351 186.412 291.049 187 288.5 187ZM288.5 184.608C290.529 184.608 292.35 184.137 293.963 183.196C295.575 182.255 296.85 180.909 297.786 179.157C298.723 177.379 299.191 175.327 299.191 173C299.191 170.673 298.723 168.634 297.786 166.882C296.85 165.131 295.575 163.784 293.963 162.843C292.35 161.902 290.529 161.431 288.5 161.431C286.471 161.431 284.65 161.902 283.037 162.843C281.425 163.784 280.15 165.131 279.214 166.882C278.278 168.634 277.809 170.673 277.809 173C277.809 175.327 278.278 177.379 279.214 179.157C280.15 180.909 281.425 182.255 283.037 183.196C284.65 184.137 286.471 184.608 288.5 184.608Z" fill="#606378"></path><path d="M272 159V161.323H264.393V187H261.647V161.323H254V159H272Z" fill="#606378"></path><path d="M251 167.051C251 169.455 250.208 171.391 248.624 172.86C247.04 174.328 244.664 175.063 241.497 175.063H235.819V187H233V159H241.497C244.637 159 247 159.734 248.584 161.203C250.195 162.672 251 164.621 251 167.051ZM241.497 172.659C245.899 172.659 248.101 170.79 248.101 167.051C248.101 165.182 247.578 163.767 246.53 162.805C245.483 161.844 243.805 161.363 241.497 161.363H235.819V172.659H241.497Z" fill="#606378"></path><path d="M229 159L219.954 176.104V187H217.127V176.104L208 159H211.19L218.54 173.541L225.85 159H229Z" fill="#606378"></path><path d="M201.684 187L194.855 175.303H189.763V187H187V159H195.289C198.368 159 200.698 159.747 202.277 161.243C203.882 162.739 204.684 164.702 204.684 167.131C204.684 169.161 204.106 170.897 202.947 172.339C201.816 173.755 200.132 174.676 197.895 175.103L205 187H201.684ZM189.763 173.02H195.329C197.487 173.02 199.105 172.486 200.184 171.418C201.29 170.349 201.842 168.921 201.842 167.131C201.842 165.289 201.316 163.874 200.263 162.886C199.21 161.871 197.553 161.363 195.289 161.363H189.763V173.02Z" fill="#606378"></path><path d="M156 173.02C156 170.323 156.587 167.914 157.762 165.794C158.937 163.647 160.542 161.985 162.578 160.806C164.614 159.602 166.885 159 169.392 159C172.446 159 175.056 159.733 177.223 161.199C179.416 162.639 181.008 164.681 182 167.325H178.789C178.006 165.466 176.805 164.014 175.187 162.967C173.594 161.919 171.662 161.396 169.392 161.396C167.382 161.396 165.567 161.867 163.949 162.809C162.357 163.752 161.104 165.113 160.19 166.893C159.277 168.648 158.819 170.69 158.819 173.02C158.819 175.35 159.277 177.392 160.19 179.146C161.104 180.9 162.357 182.248 163.949 183.191C165.567 184.133 167.382 184.604 169.392 184.604C171.662 184.604 173.594 184.094 175.187 183.073C176.805 182.026 178.006 180.586 178.789 178.753H182C181.008 181.371 179.416 183.4 177.223 184.84C175.03 186.28 172.42 187 169.392 187C166.885 187 164.614 186.411 162.578 185.233C160.542 184.028 158.937 182.366 157.762 180.245C156.587 178.125 156 175.716 156 173.02Z" fill="#606378"></path><path d="M110.686 112.272C114.815 102.814 108.712 95.5039 99.3717 89.2193L106.296 76.7603L98.6916 72.558L91.947 84.6935C89.9521 83.5853 87.8807 82.4977 85.8268 81.4136L92.62 69.2023L85.0227 65L78.0919 77.4521C76.428 76.5779 74.792 75.7175 73.2144 74.8468L73.2384 74.802L62.7488 69.0027L58.2444 77.1079C58.2444 77.1079 63.926 80.1022 63.7709 80.1538C66.8527 81.8575 66.8631 84.1944 66.2972 85.8947L58.4135 100.088C58.6206 100.205 58.8933 100.367 59.1867 100.584L58.3824 100.14L47.3266 120.023C46.6535 120.914 45.228 122.143 43.0741 120.959C43.1224 121.096 37.5445 117.896 37.5445 117.896L31 126.122L40.8995 131.587C42.7358 132.612 44.5307 133.645 46.3049 134.636L39.3048 147.24L46.8986 151.439L53.8296 138.973C55.833 140.133 57.8489 141.271 59.877 142.387L52.9702 154.795L60.5778 159L67.5711 146.424C80.7636 152.757 91.4979 154.492 99.2678 143.131C105.522 133.989 103.369 127.174 97.0763 121.423C102.73 121.623 107.68 119.2 110.686 112.272ZM85.0746 133.335C79.8382 142.755 64.2641 132.747 59.1073 129.904L68.3888 113.208C73.5421 116.054 90.5284 123.513 85.0675 133.335H85.0746ZM94.6291 107.825C89.8619 116.392 76.9322 107.939 72.6381 105.564L81.057 90.424C85.3472 92.7953 99.5962 98.8872 94.6291 107.825Z" fill="white"></path></svg>