<svg xmlns="http://www.w3.org/2000/svg" width="980" height="274" viewBox="0 0 980 274" fill="none"><g clip-path="url(#clip0_1074_347)"><path d="M175.7 101.9C154.8 81.3 121.1 81.3 100.2 101.9C79.3 122.9 79.7 157 100.4 178C121.1 198.9 154.8 199.2 175.7 178.5C175.8 178.4 175.9 178.3 176 178.2C176.4 177.8 177.8 176.3 180.5 173.4L155.4 148.1C154.2 149.8 152.8 151.3 151.3 152.7C144.2 159.8 132.7 159.8 125.6 152.7C118.1 146.2 117.2 134.8 123.7 127.3C130.2 119.8 141.6 118.9 149.1 125.4C149.8 126 150.4 126.6 150.9 127.2C150.9 127.2 173.4 149.7 218.2 194.7C199.5 221.9 168.6 238.2 135.5 238.4C80.4 238.4 35.6 193.3 35.6 137.5C35.6 81.7 80.4 36.6 135.5 36.6C167.2 36.6 196.9 51.8 215.5 77.5C212.5 80.9 205 89.6 192.8 103.5L217.7 128.4L258.9 81.7C237.4 32.7 188.9 1 135.4 1C60.7 1 0 62.2 0 137.6C0 213 60.6 274.3 135.4 274.3C169.4 274.3 197.6 263.5 225.1 240C250.1 218.7 261.9 189 261.9 189L175.7 101.9Z" fill="url(#paint0_linear_1074_347)"></path><path d="M727.651 155.505V221.005H700.951V154.205C697.751 136.305 680.551 124.405 662.551 127.605C648.751 130.105 637.951 141.105 635.851 155.005V221.105H609.151V102.105L629.651 115.105C640.451 105.805 654.151 100.805 668.451 100.805C699.851 100.905 725.551 125.105 727.651 155.505ZM447.551 87.2049C438.751 91.8049 430.751 98.0049 424.151 105.405C406.551 81.1049 372.551 75.7049 348.251 93.2049C323.951 110.805 318.551 144.805 336.051 169.105C346.251 183.205 362.551 191.605 380.051 191.605C389.451 191.705 398.651 189.205 406.851 184.505C409.751 194.005 414.451 202.905 420.551 210.805C379.951 233.205 328.851 218.405 306.451 177.805C284.051 137.205 298.851 86.1049 339.451 63.7049C376.351 43.4049 422.451 53.4049 447.551 87.2049ZM487.251 221.205C454.451 221.205 427.951 194.605 427.951 161.905C427.951 129.205 454.551 102.605 487.251 102.605C519.951 102.605 546.551 129.205 546.551 161.905C546.551 194.605 520.051 221.105 487.251 221.205ZM487.251 194.705C505.351 194.705 520.051 180.005 520.051 161.805C520.051 143.705 505.351 129.005 487.151 129.005C469.051 129.005 454.351 143.705 454.351 161.805C454.351 180.005 469.051 194.705 487.251 194.705C487.151 194.705 487.151 194.705 487.251 194.705ZM563.051 102.605H589.351V221.005H563.051V102.605ZM849.551 81.6049H774.151V124.605H847.351V151.405H774.151V194.405H849.551V221.205H745.851V54.9049H849.551V81.6049ZM904.851 161.605L864.251 102.605H897.751C898.751 104.305 900.251 106.605 902.151 109.505C904.451 112.805 906.751 116.405 909.051 120.005C911.351 123.705 913.751 127.205 915.851 130.505C917.951 133.805 919.651 136.305 920.551 138.005L921.951 140.405L946.151 102.605H978.151L938.251 160.705L979.551 221.105H946.351L920.851 182.505L919.451 184.505C918.251 186.205 916.751 188.705 914.451 192.205C912.151 195.705 909.751 199.305 907.251 203.205C904.751 207.105 902.351 210.705 900.051 214.205C898.251 217.205 896.751 219.405 895.651 221.105H864.051L904.851 161.605Z" fill="white"></path><path d="M558.051 71.1036C558.051 66.3036 559.951 61.8036 563.351 58.4036C566.651 54.9036 571.251 53.0036 576.051 53.0036C580.951 52.9036 585.551 54.9036 588.951 58.4036C592.451 61.7036 594.351 66.3036 594.351 71.1036C594.451 76.0036 592.451 80.6036 588.951 84.0036C585.651 87.5036 581.051 89.4036 576.251 89.3036C571.451 89.4036 566.751 87.4036 563.351 84.0036C559.851 80.6036 557.951 75.9036 558.051 71.1036Z" fill="url(#paint1_linear_1074_347)"></path></g><defs><linearGradient id="paint0_linear_1074_347" x1="262.576" y1="137.668" x2="-0.566461" y2="137.668" gradientUnits="userSpaceOnUse"><stop stop-color="#22E6B8"></stop><stop offset="1" stop-color="#00C1CE"></stop></linearGradient><linearGradient id="paint1_linear_1074_347" x1="594.271" y1="71.1815" x2="557.863" y2="71.1815" gradientUnits="userSpaceOnUse"><stop stop-color="#22E6B8"></stop><stop offset="1" stop-color="#00C1CE"></stop></linearGradient><clipPath id="clip0_1074_347"><rect width="980" height="274" fill="white"></rect></clipPath></defs></svg>