<svg xmlns="http://www.w3.org/2000/svg" width="934" height="187" viewBox="0 0 934 187" fill="none"><g clip-path="url(#clip0_77_89)"><path d="M233.401 85.8703C232.651 88.4003 232.281 90.9804 232.281 93.6004C232.281 96.1304 232.651 98.6104 233.401 101.05C234.151 103.49 235.301 105.68 236.841 107.65C238.391 109.62 240.331 111.21 242.671 112.43C245.011 113.65 247.781 114.25 250.961 114.25C254.241 114.25 257.231 113.62 259.951 112.35C262.671 111.08 264.961 109.37 266.831 107.22L276.671 117.9C273.581 121.18 269.921 123.8 265.711 125.77C261.501 127.74 256.571 128.72 250.961 128.72C245.351 128.72 240.331 127.87 235.921 126.19C231.521 124.5 227.811 122.11 224.811 119.02C221.811 115.93 219.511 112.23 217.931 107.91C216.331 103.61 215.541 98.8303 215.541 93.5803C215.541 88.8003 216.401 84.2804 218.141 80.0204C219.871 75.7604 222.281 72.0404 225.381 68.8504C228.471 65.6704 232.201 63.1303 236.551 61.2603C240.911 59.3903 245.711 58.4504 250.951 58.4504C256.291 58.4504 261.161 59.4103 265.571 61.3303C269.971 63.2503 273.721 65.8504 276.811 69.1304L266.271 79.8104C264.391 77.6604 262.191 75.9703 259.671 74.7503C257.141 73.5403 254.241 72.9303 250.951 72.9303C247.771 72.9303 245.001 73.5203 242.661 74.6903C240.321 75.8703 238.371 77.3803 236.831 79.2503C235.301 81.1403 234.151 83.3403 233.401 85.8703ZM318.991 59.4504C316.271 59.4504 313.861 59.7804 311.751 60.4304C309.641 61.0904 307.791 61.8904 306.201 62.8204C304.601 63.7604 303.221 64.7904 302.061 65.9104C300.881 67.0304 299.931 68.0603 299.181 69.0003L298.761 60.7104H282.871V126.62H299.461V91.0703C299.461 88.6403 299.901 86.4303 300.801 84.4703C301.691 82.5003 302.881 80.8104 304.381 79.4104C305.881 78.0104 307.661 76.9303 309.721 76.1803C311.781 75.4303 313.931 75.0604 316.181 75.0604C317.781 75.0604 319.161 75.1504 320.321 75.3404C321.491 75.5304 322.641 75.8603 323.761 76.3203L327.131 60.7204C325.821 60.2504 324.531 59.9303 323.271 59.7403C322.011 59.5503 320.581 59.4504 318.991 59.4504ZM367.611 105.83L348.781 60.7204H329.671L359.321 126.07L357.211 131.41C355.611 135.35 354.101 138.25 352.651 140.13C351.201 142 349.351 142.94 347.101 142.94C345.411 142.94 344.011 142.59 342.891 141.89C341.771 141.19 340.741 140.46 339.801 139.71L332.351 151.37C334.221 152.97 336.401 154.2 338.881 155.09C341.361 155.98 344.471 156.43 348.221 156.43C352.521 156.43 356.091 155.49 358.901 153.62C361.711 151.74 364.071 149.33 366.001 146.38C367.921 143.43 369.531 140.22 370.851 136.76C372.161 133.29 373.471 129.92 374.791 126.64L402.341 60.7304H384.211L367.611 105.83ZM472.171 81.2304C473.381 85.3504 473.991 89.6204 473.991 94.0204C473.991 99.1704 473.241 103.58 471.741 107.23C470.241 110.89 468.371 114.07 466.121 116.79C462.371 121.29 458.271 124.42 453.821 126.21C449.371 127.99 444.801 128.88 440.121 128.88C437.961 128.88 436.111 128.79 434.571 128.6C433.021 128.41 431.621 128.16 430.361 127.83C429.091 127.5 427.931 127.13 426.851 126.71C425.771 126.29 424.621 125.85 423.411 125.37V154.74H406.971V60.7104H422.991L423.411 68.1604C424.251 67.2204 425.311 66.2404 426.571 65.2104C427.841 64.1804 429.331 63.2403 431.071 62.4003C432.801 61.5603 434.771 60.8504 436.971 60.2904C439.171 59.7304 441.631 59.4504 444.351 59.4504C449.411 59.4504 453.781 60.4303 457.491 62.4003C461.191 64.3703 464.261 66.9604 466.701 70.2004C469.121 73.4304 470.951 77.1104 472.171 81.2304ZM457.271 94.0304C457.271 91.2204 456.961 88.6004 456.351 86.1604C455.741 83.7204 454.751 81.6003 453.401 79.7603C452.041 77.9403 450.291 76.4903 448.131 75.4003C445.971 74.3203 443.311 73.7804 440.121 73.7804C437.591 73.7804 435.301 74.3203 433.241 75.4003C431.181 76.4803 429.421 77.8603 427.971 79.5403C426.521 81.2303 425.391 83.0704 424.601 85.0904C423.811 87.1104 423.411 89.0504 423.411 90.9204V110.45C426.691 113.17 431.651 114.53 438.311 114.53C441.311 114.53 443.981 113.94 446.321 112.77C448.661 111.6 450.661 110.05 452.301 108.13C453.941 106.21 455.181 104.03 456.021 101.6C456.851 99.1803 457.271 96.6404 457.271 94.0304ZM519.181 113.56C517.641 114.31 515.551 114.68 512.931 114.68C510.121 114.68 508.081 113.67 506.821 111.66C505.561 109.65 504.931 106.77 504.931 103.02V74.2104H522.641V60.7204H504.931V39.3604H488.341V60.7204H477.101V74.2104H488.341V104.15C488.341 107.81 488.711 111.16 489.461 114.19C490.211 117.24 491.451 119.84 493.181 121.99C494.911 124.15 497.191 125.81 500.001 126.98C502.811 128.15 506.231 128.74 510.261 128.74C514.201 128.74 517.761 128.15 520.941 126.98C524.121 125.81 527.361 123.87 530.631 121.15L523.611 110.88C522.191 111.92 520.721 112.81 519.181 113.56ZM599.531 80.0403C601.261 84.3103 602.131 88.8304 602.131 93.6004C602.131 98.3804 601.261 102.9 599.531 107.16C597.801 111.43 595.391 115.17 592.291 118.4C589.201 121.64 585.471 124.19 581.121 126.06C576.761 127.93 571.961 128.87 566.721 128.87C561.471 128.87 556.671 127.93 552.321 126.06C547.961 124.19 544.241 121.63 541.151 118.4C538.061 115.17 535.651 111.42 533.911 107.16C532.181 102.9 531.311 98.3704 531.311 93.6004C531.311 88.8204 532.171 84.3003 533.911 80.0403C535.641 75.7803 538.051 72.0603 541.151 68.8703C544.241 65.6903 547.971 63.1503 552.321 61.2803C556.671 59.4103 561.481 58.4704 566.721 58.4704C571.961 58.4704 576.761 59.4103 581.121 61.2803C585.481 63.1603 589.201 65.6803 592.291 68.8703C595.381 72.0503 597.791 75.7803 599.531 80.0403ZM585.411 93.6103C585.411 91.2703 585.041 88.8503 584.291 86.3703C583.541 83.8903 582.391 81.6403 580.851 79.6203C579.301 77.6003 577.361 75.9604 575.021 74.7004C572.681 73.4304 569.911 72.8004 566.731 72.8004C563.541 72.8004 560.781 73.4304 558.441 74.7004C556.101 75.9704 554.151 77.6103 552.611 79.6203C551.061 81.6403 549.921 83.8903 549.171 86.3703C548.421 88.8503 548.051 91.2703 548.051 93.6103C548.051 96.0403 548.421 98.4804 549.171 100.91C549.921 103.34 551.071 105.6 552.611 107.66C554.161 109.72 556.101 111.38 558.441 112.64C560.781 113.91 563.551 114.54 566.731 114.54C569.911 114.54 572.681 113.91 575.021 112.64C577.361 111.37 579.311 109.72 580.851 107.66C582.401 105.6 583.541 103.35 584.291 100.91C585.031 98.4804 585.411 96.0403 585.411 93.6103ZM676.891 59.3103C674.261 59.3103 671.921 59.5903 669.861 60.1503C667.801 60.7103 665.941 61.4403 664.311 62.3303C662.671 63.2203 661.261 64.1804 660.101 65.2104C658.921 66.2404 657.921 67.2304 657.081 68.1604L656.661 60.7104H640.781V126.62H657.371V90.9204C657.371 88.4904 657.771 86.2104 658.571 84.1004C659.361 81.9904 660.471 80.1504 661.871 78.5504C663.271 76.9504 664.961 75.7203 666.931 74.8303C668.901 73.9403 671.011 73.4904 673.261 73.4904C676.921 73.4904 679.891 74.6303 682.181 76.9303C684.481 79.2303 685.621 82.4804 685.621 86.7004V126.61H702.211V86.5604C702.211 78.2304 700.061 71.5903 695.751 66.6803C691.421 61.7703 685.131 59.3103 676.891 59.3103ZM773.721 82.5003C774.841 87.0003 775.411 91.5904 775.411 96.2704V98.6604H726.231C726.231 101.09 726.771 103.3 727.851 105.26C728.931 107.23 730.331 108.92 732.061 110.32C733.791 111.72 735.761 112.8 737.961 113.55C740.161 114.3 742.341 114.67 744.491 114.67C747.671 114.67 750.461 114.36 752.861 113.75C755.251 113.14 757.291 112.44 758.971 111.64C760.651 110.84 762.041 110 763.111 109.11C764.191 108.22 765.011 107.49 765.571 106.93L774.561 117.05C774.281 117.33 773.511 118.1 772.241 119.37C770.971 120.64 769.151 121.97 766.761 123.38C764.371 124.78 761.331 126.05 757.621 127.17C753.921 128.29 749.491 128.86 744.341 128.86C739.091 128.86 734.311 127.97 730.011 126.19C725.701 124.41 722.021 121.95 718.981 118.81C715.931 115.67 713.591 111.9 711.951 107.5C710.311 103.1 709.491 98.2304 709.491 92.8804C709.491 88.0104 710.311 83.4903 711.951 79.3203C713.591 75.1503 715.891 71.5203 718.831 68.4303C721.781 65.3403 725.291 62.9004 729.371 61.1304C733.451 59.3604 737.961 58.4604 742.931 58.4604C748.921 58.4604 754.011 59.5603 758.181 61.7603C762.351 63.9703 765.701 66.8403 768.221 70.4003C770.761 73.9803 772.601 78.0103 773.721 82.5003ZM758.401 86.7104C758.401 85.0204 758.071 83.3403 757.421 81.6503C756.761 79.9603 755.801 78.4404 754.541 77.0904C753.271 75.7304 751.661 74.6103 749.691 73.7203C747.721 72.8303 745.481 72.3804 742.941 72.3804C740.221 72.3804 737.811 72.8203 735.701 73.7203C733.591 74.6103 731.841 75.7404 730.431 77.0904C729.021 78.4404 727.951 79.9803 727.191 81.6503C726.441 83.3403 726.071 85.0204 726.071 86.7104H758.401ZM859.591 60.7204L847.081 106.53L833.031 60.7204H819.121L805.211 106.53L792.551 60.7204H774.281L796.621 126.63H812.081L825.151 86.8603L838.641 126.63H854.661L877.011 60.7204C877.001 60.7204 859.591 60.7204 859.591 60.7204ZM931.541 99.8603C930.511 97.5603 929.031 95.5704 927.111 93.8804C925.191 92.1904 922.901 90.7904 920.231 89.6704C917.561 88.5504 914.541 87.6103 911.161 86.8603C905.731 85.5503 901.721 84.3104 899.151 83.1404C896.571 81.9704 895.291 80.3503 895.291 78.2903C895.291 76.6003 896.061 75.1803 897.611 74.0003C899.161 72.8303 901.891 72.2404 905.831 72.2404C909.771 72.2404 913.181 72.7803 916.091 73.8603C918.991 74.9403 921.331 76.1303 923.121 77.4403L931.691 65.7804C928.411 63.3504 924.741 61.5204 920.661 60.3004C916.581 59.0904 911.641 58.4804 905.841 58.4804C902.561 58.4804 899.311 58.9504 896.071 59.8804C892.841 60.8204 889.931 62.1504 887.351 63.8904C884.771 65.6304 882.691 67.7804 881.101 70.3504C879.501 72.9304 878.711 75.8504 878.711 79.1404C878.711 82.3204 879.391 85.0603 880.751 87.3603C882.111 89.6603 883.841 91.6303 885.951 93.2603C888.061 94.9003 890.331 96.1903 892.771 97.1203C895.201 98.0603 897.551 98.8103 899.801 99.3603C903.461 100.21 906.361 101 908.521 101.75C910.671 102.5 912.361 103.25 913.581 104C914.791 104.75 915.601 105.53 915.971 106.32C916.341 107.11 916.531 107.98 916.531 108.92C916.531 111.08 915.451 112.62 913.301 113.55C911.141 114.49 908.291 114.95 904.731 114.95C900.701 114.95 897.121 114.27 893.981 112.91C890.841 111.55 888.241 109.84 886.181 107.78L876.201 118.6C879.201 121.97 883.181 124.52 888.151 126.26C893.121 127.99 898.691 128.86 904.871 128.86C908.711 128.86 912.341 128.37 915.761 127.39C919.181 126.41 922.181 125.02 924.751 123.25C927.331 121.47 929.371 119.3 930.861 116.72C932.361 114.14 933.101 111.26 933.101 108.08C933.081 104.9 932.571 102.16 931.541 99.8603ZM618.831 107.23C613.471 107.23 609.141 111.57 609.141 116.92C609.141 122.28 613.481 126.61 618.831 126.61C624.181 126.61 628.521 122.27 628.521 116.92C628.531 111.57 624.191 107.23 618.831 107.23Z" fill="white"></path><path d="M93.5 0C41.87 0 0 41.87 0 93.5C0 145.13 41.87 187 93.5 187C145.13 187 187 145.13 187 93.5C187 41.87 145.14 0 93.5 0ZM93.5 121.92C102.9 121.92 111.69 117.27 116.99 109.49C119.16 106.31 123.49 105.49 126.66 107.66C129.83 109.83 130.66 114.16 128.49 117.33C120.59 128.92 107.51 135.85 93.49 135.85C70.15 135.85 51.16 116.86 51.16 93.53C51.16 70.19 70.15 51.2 93.49 51.2C107.5 51.2 120.59 58.12 128.49 69.72C130.66 72.9 129.83 77.23 126.66 79.39C123.48 81.56 119.15 80.73 116.99 77.56C111.69 69.77 102.9 65.13 93.5 65.13C77.84 65.13 65.1 77.87 65.1 93.53C65.1 109.18 77.84 121.92 93.5 121.92ZM53.15 132.45C63.69 143.36 77.85 149.45 93.01 149.59C108.21 149.7 122.43 143.89 133.15 133.17C143.74 122.58 149.58 108.5 149.58 93.53C149.58 78.55 143.75 64.47 133.15 53.89C111.29 32.03 75.72 32.03 53.85 53.89C40.38 67.36 34.69 86.55 38.65 105.22C38.99 106.83 37.96 108.42 36.35 108.75C34.74 109.09 33.15 108.06 32.82 106.45C28.44 85.8 34.73 64.57 49.63 49.66C73.82 25.47 113.17 25.47 137.36 49.66C161.55 73.85 161.55 113.2 137.36 137.39C125.63 149.12 110.07 155.56 93.51 155.56C93.33 155.56 93.14 155.56 92.95 155.56C76.18 155.41 60.52 148.68 48.86 136.61C47.72 135.43 47.75 133.53 48.94 132.39C50.12 131.23 52.01 131.26 53.15 132.45ZM47.17 120.97C47.17 124.27 44.5 126.94 41.2 126.94C37.9 126.94 35.23 124.27 35.23 120.97C35.23 117.67 37.9 115 41.2 115C44.5 115 47.17 117.67 47.17 120.97ZM130.35 20.52C133.65 20.52 136.32 23.19 136.32 26.49C136.32 29.79 133.65 32.46 130.35 32.46C127.05 32.46 124.38 29.79 124.38 26.49C124.39 23.19 127.06 20.52 130.35 20.52ZM149.69 149.7C134.68 164.71 114.72 172.97 93.51 172.97C72.28 172.97 52.33 164.7 37.32 149.7C22.31 134.69 14.05 114.73 14.05 93.51C14.05 72.29 22.32 52.33 37.32 37.32C56.89 17.75 83.96 9.98999 111.57 16.02C113.18 16.37 114.2 17.96 113.84 19.57C113.49 21.18 111.9 22.2 110.29 21.84C84.7 16.25 59.63 23.42 41.53 41.52C27.65 55.4 20.01 73.86 20.01 93.49C20.01 113.12 27.65 131.58 41.53 145.46C55.41 159.34 73.87 166.98 93.5 166.98C113.13 166.98 131.59 159.33 145.47 145.46C159.35 131.58 166.99 113.12 166.99 93.49C166.99 73.98 159.01 54.92 145.11 41.18C143.93 40.02 143.93 38.13 145.09 36.96C146.25 35.78 148.14 35.78 149.31 36.94C164.34 51.79 172.96 72.4 172.96 93.49C172.97 114.73 164.7 134.69 149.69 149.7Z" fill="#0D7FC3"></path></g><defs><clipPath id="clip0_77_89"><rect width="934" height="187" fill="white"></rect></clipPath></defs></svg>