<svg xmlns="http://www.w3.org/2000/svg" width="634" height="244" viewBox="0 0 634 244" fill="none"><path d="M310.537 154.799C309.237 154.799 308.237 154.399 307.337 153.499C306.437 152.599 306.037 151.599 306.037 150.299V90.2992C306.037 88.9992 306.437 87.9992 307.337 87.0992C308.237 86.1992 309.237 85.6992 310.537 85.6992H350.137C351.337 85.6992 352.337 86.0992 353.137 86.9992C354.037 87.7992 354.437 88.7992 354.437 89.9992C354.437 91.1992 354.037 92.1992 353.137 92.9992C352.337 93.7992 351.337 94.1992 350.137 94.1992H315.037V115.999H346.537C347.737 115.999 348.737 116.399 349.537 117.299C350.437 118.099 350.837 119.099 350.837 120.299C350.837 121.499 350.437 122.499 349.537 123.299C348.737 124.099 347.737 124.499 346.537 124.499H315.037V146.399H350.137C351.337 146.399 352.337 146.799 353.137 147.699C354.037 148.499 354.437 149.499 354.437 150.699C354.437 151.899 354.037 152.899 353.137 153.699C352.337 154.499 351.337 154.899 350.137 154.899H310.537V154.799Z" fill="white"></path><path d="M402.236 155.299C400.936 155.299 399.936 154.899 398.936 153.999C398.036 153.099 397.636 152.099 397.636 150.799V125.599L374.036 92.4992C373.536 91.5992 373.236 90.7992 373.236 89.7992C373.236 88.4992 373.636 87.4992 374.436 86.5992C375.336 85.6992 376.336 85.1992 377.636 85.1992C379.236 85.1992 380.636 85.9992 381.636 87.4992L402.336 117.499L423.036 87.4992C424.036 85.9992 425.336 85.1992 427.036 85.1992C428.336 85.1992 429.336 85.6992 430.236 86.5992C431.136 87.4992 431.536 88.4992 431.436 89.7992C431.436 90.6992 431.136 91.5992 430.636 92.4992L406.936 125.599V150.799C406.936 152.099 406.536 153.099 405.636 153.999C404.736 154.899 403.436 155.299 402.236 155.299Z" fill="white"></path><path d="M473.937 155.299C472.637 155.299 471.437 154.899 470.337 154.199C469.337 153.399 468.637 152.299 468.037 150.799L448.737 91.2992C448.537 90.5992 448.437 89.9992 448.437 89.5992C448.337 88.2992 448.737 87.2992 449.537 86.4992C450.437 85.5992 451.437 85.1992 452.837 85.1992C453.937 85.1992 454.837 85.4992 455.637 86.1992C456.437 86.8992 457.037 87.6992 457.337 88.7992L473.937 143.399L490.637 88.9992C490.937 87.8992 491.637 86.9992 492.537 86.2992C493.537 85.5992 494.637 85.1992 495.837 85.1992C497.037 85.1992 498.037 85.5992 499.037 86.2992C500.037 86.9992 500.637 87.7992 501.037 88.9992L517.737 143.399L534.337 88.7992C534.637 87.6992 535.237 86.8992 536.037 86.1992C536.837 85.4992 537.737 85.1992 538.837 85.1992C540.137 85.1992 541.237 85.5992 542.037 86.4992C542.937 87.2992 543.337 88.2992 543.237 89.5992C543.237 89.9992 543.137 90.5992 542.937 91.2992L523.537 150.799C523.037 152.199 522.237 153.399 521.137 154.199C520.137 154.899 519.037 155.299 517.637 155.299C516.237 155.299 515.137 154.899 513.937 154.099C512.837 153.199 512.137 152.199 511.737 150.799L495.837 100.399L479.737 150.799C479.337 152.099 478.537 153.199 477.437 154.099C476.437 154.899 475.237 155.299 473.937 155.299Z" fill="white"></path><path d="M565.936 155.299C564.636 155.299 563.536 154.899 562.636 153.999C561.836 153.099 561.436 152.099 561.436 150.799C561.436 150.299 561.636 149.599 561.936 148.799L587.136 89.2992C587.636 88.0992 588.436 87.1992 589.336 86.3992C590.336 85.5992 591.536 85.1992 592.936 85.1992H593.936C595.336 85.1992 596.436 85.5992 597.436 86.3992C598.436 87.0992 599.136 88.0992 599.736 89.2992L624.936 148.799C625.236 149.599 625.436 150.199 625.436 150.799C625.436 152.099 625.036 153.099 624.136 153.999C623.336 154.899 622.336 155.299 620.936 155.299C620.036 155.299 619.136 155.099 618.336 154.599C617.636 154.099 617.036 153.399 616.636 152.499L610.236 137.099H576.636L570.236 152.499C569.836 153.399 569.236 153.999 568.436 154.599C567.636 154.999 566.836 155.299 565.936 155.299ZM580.036 128.899H606.736L593.436 96.7992L580.036 128.899Z" fill="white"></path><path d="M88.7363 35.5C88.7363 23.9 98.2363 14.4 109.836 14.4C115.436 14.4 120.736 16.6 124.736 20.6C128.736 24.6 130.936 29.9 130.936 35.5V54.5L144.336 46.8V35.5C144.336 26.3 140.736 17.6 134.236 11.1C127.736 4.59999 119.036 1 109.836 1C90.8363 1 75.3363 16.5 75.3363 35.5V110.9L130.836 143V209.5C130.836 221.1 121.336 230.6 109.736 230.6C104.136 230.6 98.8363 228.4 94.8363 224.4C90.8363 220.4 88.6363 215.1 88.6363 209.5V190.5L75.2363 198.2V209.5C75.2363 218.7 78.8363 227.4 85.3363 233.9C91.8363 240.4 100.536 244 109.736 244C128.736 244 144.236 228.5 144.236 209.5V134.1L88.7363 102V35.5Z" fill="#0CCFAC"></path><path d="M202.436 136.099L151.536 106.699L188.836 85.1987C191.036 83.8987 192.436 81.4987 192.436 78.9987C192.436 77.6987 192.136 76.4987 191.436 75.3987C190.436 73.6987 188.936 72.4987 187.036 71.9987C185.136 71.4987 183.236 71.7987 181.536 72.6987L123.736 106.199L195.736 147.799C200.636 150.599 204.136 155.199 205.536 160.599C207.036 165.999 206.236 171.699 203.436 176.599C199.736 183.099 192.736 187.099 185.236 187.099C181.536 187.099 177.936 186.099 174.736 184.299L158.236 174.799V190.299L168.036 195.899C173.236 198.899 179.236 200.499 185.236 200.499C197.536 200.499 208.936 193.899 215.036 183.299C215.636 182.299 216.136 181.299 216.636 180.199C217.136 179.199 217.536 178.099 217.936 176.999C218.136 176.499 218.236 175.899 218.436 175.399C219.336 172.199 219.836 168.799 219.736 165.499C219.736 162.699 219.336 159.799 218.536 157.099C216.136 148.199 210.436 140.699 202.436 136.099Z" fill="#0CCFAC"></path><path d="M117.037 35.4969C117.037 33.5969 116.337 31.7969 114.937 30.3969C113.537 28.9969 111.737 28.2969 109.837 28.2969C105.837 28.2969 102.637 31.4969 102.637 35.4969V93.9969L109.837 98.1969L174.637 60.7969C177.837 58.9969 181.537 57.9969 185.137 57.9969C192.637 57.9969 199.637 61.9969 203.437 68.4969C205.237 71.6969 206.237 75.2969 206.237 78.9969C206.237 86.4969 202.237 93.4969 195.737 97.1969L179.237 106.697L192.637 114.397L202.437 108.697C213.037 102.597 219.637 91.0969 219.637 78.8969C219.637 72.8969 218.037 66.8969 215.037 61.6969C208.937 51.0969 197.437 44.4969 185.137 44.4969C179.137 44.4969 173.137 46.0969 167.937 49.0969L117.037 78.4969V35.4969Z" fill="#E651F3"></path><path d="M4.33714 95.7984C4.73714 96.5984 5.23714 97.2984 5.83714 98.1984C7.23714 100.198 8.73714 102.098 10.4371 103.798C12.4371 105.798 14.7371 107.498 17.2371 108.898L68.1371 138.298L30.8371 159.798C28.6371 161.098 27.2371 163.498 27.2371 165.998C27.2371 167.298 27.5371 168.498 28.2371 169.598C29.5371 171.798 31.9371 173.198 34.4371 173.198C35.7371 173.198 36.9371 172.898 38.0371 172.198L95.9371 138.798L23.9371 97.1984C19.0371 94.3984 15.5371 89.7984 14.1371 84.3984C12.7371 78.9984 13.4371 73.2984 16.2371 68.3984C20.0371 61.8984 26.9371 57.8984 34.4371 57.8984C38.1371 57.8984 41.7371 58.8984 44.9371 60.6984L61.4371 70.1984V54.6984L51.6371 48.9984C46.4371 45.9984 40.4371 44.3984 34.4371 44.3984C22.1371 44.3984 10.7371 50.9984 4.63714 61.5984C0.0371437 69.5984 -1.16286 78.8984 1.13714 87.7984C1.93714 90.6984 3.03714 93.2984 4.33714 95.7984Z" fill="#0CCFAC"></path><path d="M34.5365 71.7969C31.9365 71.7969 29.5365 73.1969 28.3365 75.3969C27.3365 77.0969 27.1365 78.9969 27.6365 80.8969C28.1365 82.7969 29.3365 84.2969 31.0365 85.2969L61.6365 102.997V86.3969L38.2365 72.8969C37.0365 72.0969 35.7365 71.7969 34.5365 71.7969Z" fill="#E651F3"></path><path d="M102.637 209.498C102.637 211.398 103.337 213.198 104.737 214.598C106.137 215.998 107.937 216.698 109.837 216.698C113.837 216.698 117.037 213.498 117.037 209.498V150.998L109.837 146.798L45.0371 184.198C41.8371 185.998 38.2371 186.998 34.5371 186.998C27.0371 186.998 20.0371 182.998 16.2371 176.498C14.4371 173.298 13.4371 169.598 13.4371 165.998C13.4371 158.498 17.4371 151.498 23.9371 147.798L40.4371 138.298L27.0371 130.598L17.2371 136.298C6.63711 142.398 0.0371094 153.898 0.0371094 166.098C0.0371094 172.098 1.63711 178.098 4.63711 183.298C10.7371 193.898 22.2371 200.498 34.5371 200.498C40.5371 200.498 46.5371 198.898 51.7371 195.898L102.637 166.498V209.498Z" fill="#E651F3"></path><path d="M185.137 173.2C187.737 173.2 190.137 171.8 191.337 169.6C192.337 167.9 192.537 166 192.037 164.1C191.537 162.2 190.337 160.7 188.637 159.7L158.037 142V158.6L181.437 172.1C182.637 172.8 183.937 173.2 185.137 173.2Z" fill="#E651F3"></path></svg>