<svg xmlns="http://www.w3.org/2000/svg" width="1637" height="429" viewBox="0 0 1637 429" fill="none"><g clip-path="url(#clip0_1073_191)"><path d="M157.598 39.9729H193.459C215.298 36.7537 237.6 39.584 257.945 48.1563C283.468 63.5208 301.981 88.2563 309.533 117.086C314.881 132.194 314.881 132.194 327.778 126.843H337.844V7.23918H0.315386V28.3272H14.1563C20.1709 28.2855 26.1185 29.5927 31.562 32.1526C37.0056 34.7126 41.8068 38.4602 45.6129 43.1203C58.51 63.8936 60.712 87.1849 60.712 208.362C60.712 337.094 57.8809 368.569 45.6129 384.621C42.5842 388.747 38.663 392.136 34.1421 394.534C29.6211 396.932 24.6172 398.278 19.5039 398.47C0.315387 401.932 0.315386 401.617 0.315386 410.115C-0.745754 412.957 -0.745754 416.086 0.315386 418.928H213.276C214.686 416.148 215.42 413.075 215.42 409.958C215.42 406.841 214.686 403.767 213.276 400.988C208.118 399.552 202.861 398.5 197.548 397.84C191.8 397.156 186.119 395.998 180.562 394.378C172.604 388.565 166.299 380.774 162.272 371.777C158.245 362.779 156.634 352.886 157.598 343.074C154.453 322.301 152.88 284.216 152.88 252.742V227.877H165.462C181.139 227.397 196.806 229.092 212.018 232.913C219.306 237.419 225.509 243.479 230.185 250.661C234.862 257.842 237.896 265.969 239.071 274.459L241.902 284.216H261.09V144.784H243.475L240.644 158.318C239.452 167.001 236.242 175.283 231.271 182.498C226.299 189.714 219.705 195.662 212.018 199.864C204.574 202.081 196.731 202.618 189.055 201.438H152.88V167.445C152.88 132.194 154.767 57.9134 156.025 46.2678L157.598 39.9729ZM1629.77 289.567C1614.9 265.622 1591.71 248.022 1564.65 240.152C1543.91 233.665 1524.74 222.948 1508.34 208.677C1504.65 205.107 1501.89 200.688 1500.3 195.805C1498.71 190.922 1498.34 185.724 1499.22 180.665C1499.25 170.74 1503.21 161.231 1510.23 154.226C1514.99 149.236 1521.02 145.634 1527.67 143.804C1534.32 141.975 1541.34 141.987 1547.98 143.839C1561.73 147.761 1574.17 155.331 1583.97 165.748C1593.77 176.165 1600.57 189.041 1603.66 203.012C1608.69 217.175 1609.32 217.175 1618.44 213.398L1624.1 211.195V132.823L1620.01 130.935C1589.05 120.052 1556.19 115.555 1523.44 117.715C1495.24 118.43 1468.31 129.655 1447.95 149.19C1438.71 157.842 1431.47 168.41 1426.75 180.153C1422.02 191.897 1419.91 204.532 1420.58 217.175C1420.76 236.505 1428.43 255.011 1441.97 268.794C1456.94 283.524 1475.31 294.334 1495.45 300.269C1544.2 319.468 1558.36 331.743 1558.36 354.09C1558.57 363.514 1555.57 372.729 1549.85 380.222C1544.14 387.714 1536.04 393.039 1526.9 395.322C1515.92 397.736 1504.54 397.736 1493.56 395.322C1479.18 389.737 1466.34 380.798 1456.11 369.246C1445.87 357.695 1438.55 343.866 1434.73 328.91L1430.65 318.839H1424.98C1422.28 319.04 1419.62 319.677 1417.12 320.727H1413.97V410.115H1419.32C1440.57 417.189 1462.5 422.041 1484.75 424.594H1516.21C1529.85 425.595 1543.56 424.319 1556.79 420.817C1573.57 417.717 1589.26 410.276 1602.28 399.233C1615.31 388.189 1625.21 373.929 1631.02 357.867C1634.78 348.896 1636.7 339.265 1636.69 329.54C1637.93 315.839 1635.54 302.053 1629.77 289.567ZM1333.44 126.843C1314.59 118.924 1294.28 115.083 1273.85 115.571C1253.41 116.059 1233.3 120.866 1214.85 129.676C1197.51 138.164 1182.14 150.197 1169.73 164.997C1157.32 179.797 1148.15 197.036 1142.82 215.602C1136.01 235.854 1133.13 257.218 1134.32 278.551C1134.1 290.158 1135.05 301.757 1137.16 313.173C1142.24 341.242 1155.78 367.084 1175.97 387.227C1196.15 407.369 1222.02 420.848 1250.08 425.853C1268.36 428.157 1286.86 428.157 1305.13 425.853C1324.1 422.508 1342.25 415.563 1358.61 405.394C1372.14 397.804 1383.59 386.993 1391.95 373.919C1391.42 371.868 1390.47 369.946 1389.17 368.269C1387.88 366.593 1386.25 365.196 1384.4 364.162C1380.81 365.463 1377.43 367.264 1374.34 369.513C1358.69 379.83 1340.22 385.002 1321.49 384.306C1309.06 385.147 1296.6 383.21 1285.01 378.638C1273.43 374.065 1263 366.97 1254.49 357.867C1247.91 351.749 1242.47 344.5 1238.45 336.464C1228.67 316.898 1223.4 295.387 1223.03 273.515V261.24H1397.3V254.945C1397.69 248.656 1397.69 242.349 1397.3 236.06C1397.24 213.836 1391.3 192.024 1380.08 172.842C1368.87 153.659 1352.78 137.788 1333.44 126.843ZM1245.68 235.745H1223.66V217.175C1230.9 169.649 1248.83 141.321 1270.85 141.321C1292.87 141.321 1302.3 169.334 1306.39 220.638V235.116H1287.52L1245.68 235.745ZM793.336 116.456C782.466 116.035 771.661 118.305 761.879 123.066C740.619 133.397 723.446 150.579 713.121 171.852L709.032 179.406V116.456H707.459C703.684 116.456 587.295 139.748 583.52 141.321C579.745 142.895 581.004 143.21 581.004 148.875C581.004 154.541 581.004 155.485 583.52 155.8L595.788 158.318C599.224 158.402 602.596 159.268 605.648 160.849C608.7 162.431 611.352 164.686 613.404 167.445C621.268 177.832 622.841 196.087 622.841 273.83C624.395 308.828 622.921 343.896 618.437 378.64C617.381 383.879 614.726 388.661 610.839 392.326C606.951 395.991 602.022 398.357 596.732 399.099L586.037 401.302H581.947V410.115C580.806 413.051 580.806 416.307 581.947 419.243H757.79V410.115C758.4 407.103 758.4 403.999 757.79 400.988C747.202 400.575 736.674 399.205 726.333 396.896C720.702 393.949 716.095 389.364 713.119 383.745C710.143 378.127 708.937 371.738 709.661 365.421C707.145 347.166 705.886 293.659 706.515 252.742C707.145 211.825 706.515 209.307 709.976 206.474C720.502 198.399 733.527 194.277 746.78 194.828C759.272 195.101 771.537 198.223 782.64 203.956C786.49 206.095 790.619 207.684 794.908 208.677C794.908 208.677 826.365 132.508 826.365 129.046C822.339 124.366 817.211 120.763 811.444 118.565C805.677 116.367 799.453 115.642 793.336 116.456ZM581.318 248.65C580.22 226.158 573.767 204.255 562.495 184.764C551.223 165.274 535.46 148.76 516.518 136.6C494.007 124.449 468.963 117.749 443.396 117.039C417.828 116.328 392.451 121.627 369.301 132.508C336.57 149.778 311.857 179.134 300.411 214.343C288.589 253.762 288.589 295.786 300.411 335.205C306.609 356.749 318.193 376.356 334.07 392.175C353.843 411.48 379.34 423.849 406.734 427.426C424.319 428.898 441.996 428.898 459.581 427.426C466.052 426.441 472.46 425.075 478.77 423.335C504.374 416.168 527.41 401.853 545.18 382.066C562.951 362.278 574.722 337.836 579.116 311.599C582.257 290.77 582.996 269.648 581.318 248.65ZM450.459 406.023C419.002 415.466 395.41 384.935 387.546 320.727C384.658 287.111 384.658 253.309 387.546 219.693C393.837 168.075 409.88 141.951 434.731 141.951C439.744 141.64 444.76 142.535 449.357 144.561C453.954 146.587 457.999 149.685 461.154 153.596C482.23 174.685 492.611 216.546 492.611 279.495C495.228 315.121 489.632 350.872 476.253 383.991C470.346 393.65 461.206 400.9 450.459 404.45V406.023ZM1016.68 122.751C1007.8 121.608 998.815 121.608 989.939 122.751C972.901 122.737 956.058 126.386 940.552 133.453L930.801 137.544V69.2443C932.505 46.1944 932.505 23.0499 930.801 0C927.026 0 806.862 22.9765 804.975 23.9208C804.047 26.2445 804.047 28.8362 804.975 31.1599C804.975 37.7696 804.975 37.4549 819.13 40.6023C823.104 41.4942 826.922 42.9796 830.454 45.0088C836.595 50.7863 840.681 58.4119 842.093 66.7263C845.675 90.6793 846.834 114.932 845.554 139.118V415.466L854.047 417.354C866.629 420.187 902.175 426.167 913.814 427.426C937.055 429.276 960.407 429.276 983.648 427.426C1009.44 424.79 1034.03 415.16 1054.76 399.575C1075.5 383.99 1091.58 363.04 1101.3 338.982C1107.08 323.542 1111.1 307.491 1113.25 291.141C1115.12 268.994 1114.38 246.703 1111.05 224.729C1107.67 200.098 1096.81 177.101 1079.93 158.858C1063.04 140.616 1040.96 128.01 1016.68 122.751ZM934.261 400.673C934.261 396.581 931.115 258.722 931.745 203.641V160.521L940.867 158.318C947.022 157.435 953.271 157.435 959.426 158.318C966.233 157.625 973.08 159.172 978.929 162.724C990.677 170.836 1000.43 181.509 1007.46 193.939C1014.49 206.37 1018.61 220.233 1019.51 234.486C1021.8 257.406 1021.8 280.497 1019.51 303.416C1017.63 336.727 1004.8 368.483 983.019 393.748C976.837 399.623 969.074 403.562 960.685 405.079C954.336 406.184 947.845 406.184 941.496 405.079C935.519 405.079 935.519 403.191 935.519 400.673H934.261Z" fill="#BDBCBC"></path></g><defs><clipPath id="clip0_1073_191"><rect width="1637" height="429" fill="white"></rect></clipPath></defs></svg>