<svg xmlns="http://www.w3.org/2000/svg" width="2500" height="635" viewBox="0 0 2500 635" fill="none"><g clip-path="url(#clip0_1076_457)"><path fill-rule="evenodd" clip-rule="evenodd" d="M1434.9 465.401C1411.5 465.401 1389 456.001 1372.2 442.001C1309.5 388.601 1356.3 285.701 1420.9 285.701C1464 285.701 1495.8 294.101 1515.4 338.101C1526.6 361.501 1525.7 389.601 1514.5 413.901C1502.3 442.001 1468.6 466.301 1434 466.301L1434.9 465.401ZM1268.3 373.701C1268.3 457.001 1332.9 529.101 1401.2 529.101C1468.6 529.101 1477 524.401 1525.7 490.701V524.401H1597.8V224.801H1525.7V261.301C1515.4 254.701 1505.1 241.601 1485.5 232.301C1406.9 198.601 1314.2 228.601 1280.5 311.901C1273.9 327.801 1268.3 353.101 1268.3 374.601V373.701Z" fill="white"></path><path fill-rule="evenodd" clip-rule="evenodd" d="M819.9 523.4H910.7L940.7 481.3L974.4 430.8L1038.9 523.4H1116.6L1014.6 374.6L1117.6 223.9H1038.9L890.1 438.2L888.2 113.5H819.9V523.4Z" fill="white"></path><path fill-rule="evenodd" clip-rule="evenodd" d="M1734.4 523.402H1762.4L1723.1 634.802H1800.8L1953.4 223.902H1875.7L1786.8 457.002L1767.1 399.902L1701.6 223.902H1626.7L1734.4 523.402Z" fill="white"></path><path fill-rule="evenodd" clip-rule="evenodd" d="M2278.2 260.402V223.902H2206.1V523.402H2278.2V359.602C2278.2 317.502 2303.5 281.902 2350.3 281.002C2405.5 280.102 2427.1 321.202 2428 359.602L2428.9 522.502L2500 523.402V356.802C2500 234.202 2358.7 168.702 2278.2 259.502V260.402Z" fill="white"></path><path fill-rule="evenodd" clip-rule="evenodd" d="M2031.1 223.902H1987.1L1962.7 291.302H2031.1V523.402H2103.1V291.302H2175.2V223.902H2103.1V154.602H2031.1V223.902Z" fill="white"></path><path fill-rule="evenodd" clip-rule="evenodd" d="M1155 523.4H1227.1V113.5H1155V523.4Z" fill="white"></path><path fill-rule="evenodd" clip-rule="evenodd" d="M518.5 559.902L318.2 356.802L115.1 560.802C155.3 587.902 219 633.802 316.3 633.802C413.6 634.702 492.3 586.102 518.5 558.902V559.902ZM559.7 114.402L356.6 317.502C424.9 384.902 491.4 454.202 558.8 522.502C664.6 387.702 654.3 249.202 559.7 115.302V114.402ZM72.9999 518.702L249 50.7016L1.89985 298.802C-11.2001 370.902 27.0999 463.502 72.9999 518.702ZM165.7 426.102C178.8 422.402 458.7 135.002 518.6 76.0016C487.6 33.9016 380 -1.69838 326.7 0.201618L165.7 426.102Z" fill="url(#paint0_linear_1076_457)"></path></g><defs><linearGradient id="paint0_linear_1076_457" x1="174.065" y1="601.608" x2="488.561" y2="50.3037" gradientUnits="userSpaceOnUse"><stop stop-color="#850000"></stop><stop offset="0.251" stop-color="#C70158"></stop><stop offset="0.4824" stop-color="#DE1E41"></stop><stop offset="0.6392" stop-color="#F63B2A"></stop><stop offset="1" stop-color="#FF8700"></stop></linearGradient><clipPath id="clip0_1076_457"><rect width="2500" height="635" fill="white"></rect></clipPath></defs></svg>