<svg xmlns="http://www.w3.org/2000/svg" width="1110" height="306" viewBox="0 0 1110 306" fill="none"><g clip-path="url(#clip0_1085_35)"><path d="M103.5 0L0 164.981L103.5 305L207 164.981L103.5 0ZM87.931 226.091L46.1813 164.926L51.5788 155.092H77.1421L87.931 169.859V226.091ZM63.737 144.86L103.5 74.997L143.263 144.86H63.737ZM118.837 169.859L129.626 155.092H155.189L160.586 164.92L118.837 226.085V169.859Z" fill="#4BF7A9"></path></g><path d="M340.6 130C338.067 125.333 334.4 121.8 329.6 119.4C324.933 116.867 319.4 115.6 313 115.6C301.933 115.6 293.067 119.267 286.4 126.6C279.733 133.8 276.4 143.467 276.4 155.6C276.4 168.533 279.867 178.667 286.8 186C293.867 193.2 303.533 196.8 315.8 196.8C324.2 196.8 331.267 194.667 337 190.4C342.867 186.133 347.133 180 349.8 172H306.4V146.8H380.8V178.6C378.267 187.133 373.933 195.067 367.8 202.4C361.8 209.733 354.133 215.667 344.8 220.2C335.467 224.733 324.933 227 313.2 227C299.333 227 286.933 224 276 218C265.2 211.867 256.733 203.4 250.6 192.6C244.6 181.8 241.6 169.467 241.6 155.6C241.6 141.733 244.6 129.4 250.6 118.6C256.733 107.667 265.2 99.2 276 93.2C286.8 87.0667 299.133 84 313 84C329.8 84 343.933 88.0667 355.4 96.2C367 104.333 374.667 115.6 378.4 130H340.6ZM433.944 113V141.4H479.744V167.8H433.944V198.6H485.744V226H399.744V85.6H485.744V113H433.944ZM666.947 85.6V226H632.747V141.8L601.347 226H573.747L542.147 141.6V226H507.947V85.6H548.347L587.747 182.8L626.747 85.6H666.947ZM798.541 130.8C798.541 138.933 796.674 146.4 792.941 153.2C789.207 159.867 783.474 165.267 775.741 169.4C768.007 173.533 758.407 175.6 746.941 175.6H725.741V226H691.541V85.6H746.941C758.141 85.6 767.607 87.5333 775.341 91.4C783.074 95.2667 788.874 100.6 792.741 107.4C796.607 114.2 798.541 122 798.541 130.8ZM744.341 148.4C750.874 148.4 755.741 146.867 758.941 143.8C762.141 140.733 763.741 136.4 763.741 130.8C763.741 125.2 762.141 120.867 758.941 117.8C755.741 114.733 750.874 113.2 744.341 113.2H725.741V148.4H744.341ZM903.745 201.2H851.345L842.945 226H807.145L857.945 85.6H897.545L948.345 226H912.145L903.745 201.2ZM894.945 174.8L877.545 123.4L860.345 174.8H894.945ZM1016.41 85.6C1031.21 85.6 1044.14 88.5333 1055.21 94.4C1066.27 100.267 1074.81 108.533 1080.81 119.2C1086.94 129.733 1090.01 141.933 1090.01 155.8C1090.01 169.533 1086.94 181.733 1080.81 192.4C1074.81 203.067 1066.21 211.333 1055.01 217.2C1043.94 223.067 1031.07 226 1016.41 226H963.806V85.6H1016.41ZM1014.21 196.4C1027.14 196.4 1037.21 192.867 1044.41 185.8C1051.61 178.733 1055.21 168.733 1055.21 155.8C1055.21 142.867 1051.61 132.8 1044.41 125.6C1037.21 118.4 1027.14 114.8 1014.21 114.8H998.006V196.4H1014.21Z" fill="white"></path><defs><clipPath id="clip0_1085_35"><rect width="207" height="305" fill="white"></rect></clipPath></defs></svg>