<svg xmlns="http://www.w3.org/2000/svg" width="932" height="214" viewBox="0 0 932 214" fill="none"><g clip-path="url(#clip0_1074_265)"><path d="M728.295 106.902C728.295 101.444 728.295 96.3096 728.119 91.5682C727.998 87.0952 727.556 82.6368 726.794 78.2275C726.082 74.2013 724.824 70.2911 723.056 66.6048C721.189 62.8041 718.694 59.3459 715.677 56.376C711.398 51.9892 706.305 48.4783 700.684 46.0392C694.604 43.5749 688.091 42.3533 681.531 42.4463C674.946 42.3612 668.41 43.5824 662.3 46.0392C656.647 48.445 651.522 51.9407 647.219 56.3269C644.207 59.295 641.722 62.7539 639.87 66.5557C638.116 70.2428 636.878 74.1537 636.19 78.1785C635.446 82.589 635.019 87.0474 634.914 91.5191C634.797 96.2605 634.738 101.395 634.767 106.852C634.797 112.31 634.767 117.405 634.914 122.176C635.019 126.648 635.446 131.106 636.19 135.517C636.878 139.541 638.116 143.452 639.87 147.139C641.729 150.937 644.214 154.395 647.219 157.368C651.515 161.758 656.642 165.249 662.3 167.636C668.406 170.109 674.944 171.337 681.531 171.249C688.093 171.346 694.608 170.117 700.684 167.636C706.306 165.23 711.4 161.741 715.677 157.368C718.688 154.393 721.182 150.936 723.056 147.139C724.824 143.453 726.082 139.543 726.794 135.517C727.547 131.12 727.983 126.675 728.099 122.215C728.246 117.445 728.315 112.34 728.276 106.892L728.295 106.902ZM703.569 106.902C703.569 112.949 703.481 117.984 703.275 121.99C703.159 125.279 702.831 128.558 702.293 131.806C701.926 133.97 701.265 136.073 700.331 138.059C699.573 139.66 698.581 141.138 697.387 142.447C695.546 144.557 693.261 146.233 690.696 147.355C687.809 148.591 684.7 149.219 681.561 149.201C678.406 149.215 675.281 148.587 672.377 147.355C669.749 146.254 667.402 144.576 665.508 142.447C664.308 141.144 663.315 139.664 662.565 138.059C661.656 136.071 661.029 133.967 660.7 131.806C660.176 128.557 659.849 125.278 659.719 121.99C659.543 117.984 659.454 112.955 659.454 106.902C659.454 100.855 659.543 95.8089 659.719 91.8038C659.849 88.5149 660.177 85.2368 660.7 81.9873C661.029 79.8265 661.656 77.7219 662.565 75.7341C663.317 74.1303 664.31 72.6506 665.508 71.3462C667.405 69.2199 669.751 67.5432 672.377 66.4379C675.277 65.1924 678.405 64.5639 681.561 64.5924C684.701 64.5598 687.814 65.1886 690.696 66.4379C693.259 67.564 695.543 69.2396 697.387 71.3462C698.578 72.6565 699.57 74.135 700.331 75.7341C701.265 77.7199 701.926 79.8235 702.293 81.9873C702.83 85.235 703.158 88.514 703.275 91.8038C703.491 95.7991 703.569 100.845 703.569 106.902Z" fill="#23AF91"></path><path d="M925.321 45.7241C925.311 44.5304 924.346 43.5653 923.153 43.5547H902.754C901.558 43.5601 900.591 44.5282 900.585 45.7241V121.115L850.839 44.1633C850.505 43.643 850.211 43.5547 849.475 43.5547H830.557C829.366 43.5705 828.405 44.5326 828.389 45.7241V168.058C828.405 169.247 829.368 170.207 830.557 170.217H850.946C852.136 170.212 853.1 169.248 853.105 168.058V92.4704L902.862 169.599C903.205 170.119 903.48 170.207 904.226 170.207H923.133C924.325 170.202 925.291 169.24 925.302 168.048L925.321 45.7241Z" fill="#23AF91"></path><path d="M788.582 45.7241C788.576 44.5282 787.609 43.5601 786.413 43.5547H766.034C764.838 43.5601 763.871 44.5282 763.865 45.7241V168.048C763.871 169.244 764.838 170.212 766.034 170.217H786.413C787.609 170.212 788.576 169.244 788.582 168.048V45.7241Z" fill="#23AF91"></path><path d="M544.615 106.9C544.615 100.814 544.684 95.7487 544.861 91.7141C544.981 88.4245 545.308 85.1458 545.842 81.8976C547.726 71.0013 556.066 64.5715 566.712 64.5715C573.659 64.6304 579.958 67.2023 583.981 73.0529C585.803 75.7844 587.131 78.8146 587.906 82.0056C587.965 82.3417 588.272 82.5762 588.612 82.5455H612.603C612.946 82.5455 613.074 82.3099 613.015 81.9761C610.395 67.1237 602.477 53.7831 588.485 47.1766C581.608 43.9912 574.102 42.3975 566.525 42.5137C553.018 42.5137 541.639 47.1406 532.389 56.3943C527.109 61.5433 523.504 68.1671 522.048 75.3991C520.635 82.5193 519.922 93.0164 519.908 106.89C519.895 120.764 520.609 131.258 522.048 138.372C523.492 145.613 527.086 152.25 532.36 157.416C541.603 166.663 552.982 171.287 566.496 171.287C574.072 171.401 581.576 169.811 588.455 166.634C602.447 160.027 610.365 146.687 612.985 131.834C613.044 131.491 612.917 131.265 612.573 131.265H588.573C588.232 131.229 587.922 131.466 587.867 131.805C587.09 134.992 585.762 138.019 583.942 140.748C579.919 146.638 573.619 149.18 566.673 149.229C556.027 149.229 547.686 142.809 545.802 131.913C545.269 128.664 544.942 125.386 544.821 122.096C544.684 118.042 544.615 112.967 544.615 106.9Z" fill="#23AF91"></path><path d="M291.23 45.7241C291.225 44.5282 290.257 43.5601 289.062 43.5547H268.682C267.487 43.5601 266.519 44.5282 266.514 45.7241V168.058C266.524 169.25 267.491 170.212 268.682 170.218H289.062C290.253 170.212 291.219 169.25 291.23 168.058V132.149L307.587 112.584L341.183 169.569C341.442 169.989 341.907 170.237 342.4 170.218H367.165C368.303 170.218 368.509 169.51 367.94 168.539L323.953 93.933L364.31 45.4984C365.124 44.5167 364.781 43.5841 363.505 43.5841H336.434C336.105 43.5648 335.788 43.7123 335.59 43.9768L291.23 97.2019V45.7241Z" fill="#23AF91"></path><path d="M439.705 149.229C428.234 149.229 417.834 138.608 417.834 125.925V45.7241C417.828 44.5282 416.861 43.5601 415.665 43.5547H395.286C394.09 43.5601 393.123 44.5282 393.117 45.7241V125.611C393.117 153.539 413.997 171.287 439.705 171.287C465.412 171.287 486.292 153.539 486.292 125.611V45.7241C486.281 44.5304 485.317 43.5653 484.124 43.5547H463.734C462.543 43.5654 461.581 44.532 461.576 45.7241V125.925C461.576 138.598 451.165 149.229 439.705 149.229Z" fill="#23AF91"></path><path fill-rule="evenodd" clip-rule="evenodd" d="M61.6586 106.901L124.926 170.208L164.861 130.255C172.002 123.822 182.927 124.108 189.722 130.906C196.516 137.704 196.802 148.633 190.372 155.778L137.672 208.512C130.593 215.477 119.24 215.477 112.161 208.512L36.1278 132.424V177.649C36.1278 187.63 28.0403 195.721 18.0639 195.721C8.08748 195.721 0 187.63 0 177.649V36.0946C0 26.1136 8.08748 18.0224 18.0639 18.0224C28.0403 18.0224 36.1278 26.1136 36.1278 36.0946V81.3193L112.151 5.25114C119.228 -1.71913 130.586 -1.71913 137.662 5.25114L190.402 57.9756C196.832 65.1198 196.546 76.0496 189.751 82.8474C182.956 89.6451 172.032 89.9313 164.891 83.4986L124.956 43.5454L61.6586 106.901ZM124.956 88.8093C117.641 88.8053 111.044 93.2108 108.242 99.9709C105.44 106.731 106.985 114.514 112.156 119.691C117.327 124.867 125.105 126.416 131.864 123.617C138.623 120.817 143.03 114.22 143.03 106.901C143.032 102.103 141.129 97.5001 137.74 94.1054C134.35 90.7107 129.752 88.8021 124.956 88.7995V88.8093Z" fill="#23AF91"></path></g><defs><clipPath id="clip0_1074_265"><rect width="932" height="214" fill="white"></rect></clipPath></defs></svg>