<svg xmlns="http://www.w3.org/2000/svg" width="600" height="195" viewBox="0 0 600 195" fill="none"><path d="M84.1621 102.159H48.3891L11.7931 65.7975C9.41248 63.432 9.40028 59.5847 11.7688 57.2072L58.7008 10.0352H95.5518L84.4108 20.8662L43.5058 61.5132L83.8908 102.16M69.4578 61.6072H105.231L141.827 97.9692C144.207 100.335 144.219 104.182 141.851 106.559L94.9186 153.728H58.0676L69.2086 142.897L110.114 102.25L69.7286 61.6035M351.269 89.7875V69.6985H334.055V41.3585H310.365V69.6985H295.662V89.7875H310.365V122.672C310.365 140.955 313.966 154.391 336.415 153.976L350.507 153.7V134.864H343.514C333.536 134.864 334.091 129.047 334.091 118.243L334.053 89.788H351.266L351.269 89.7875ZM589.999 89.7875V69.6985H572.785V41.3585H549.095V69.6985H534.392V89.7875H549.095V122.672C549.095 140.955 552.696 154.391 575.145 153.976L589.237 153.7V134.864H582.244C572.266 134.864 572.822 129.047 572.822 118.243L572.783 89.788H589.996L589.999 89.7875ZM418.859 79.2265C416.038 75.8378 412.731 73.2112 409.002 71.3954C404.551 69.2425 399.343 68.1524 393.522 68.1524C386.396 68.1524 380.006 69.9105 374.541 73.3722C369.082 76.8308 364.751 81.7195 361.676 87.8932C358.612 94.0511 357.054 101.281 357.054 109.391C357.054 117.502 358.691 124.306 361.922 130.507C365.158 136.729 369.646 141.684 375.259 145.244C380.882 148.811 387.295 150.622 394.322 150.622C399.627 150.622 404.473 149.473 408.718 147.205C412.079 145.411 414.894 143.036 417.114 140.136V149.283C417.114 154.951 415.623 159.303 412.693 162.203C409.753 165.103 405.284 166.566 399.405 166.566C394.34 166.566 390.356 165.419 387.568 163.15C385.288 161.295 383.296 158.86 382.832 153.703H359.839C360.052 160.918 362.171 165.78 365.162 170.039C368.517 174.813 373.236 178.545 379.2 181.122C385.106 183.67 391.959 184.963 399.566 184.963C412.335 184.963 422.501 181.754 429.773 175.432C437.091 169.074 440.801 160.171 440.801 148.975V69.6951H418.86L418.859 79.2265ZM414.659 120.55C413.147 123.672 411.013 126.12 408.307 127.813C405.605 129.508 402.343 130.37 398.609 130.37C393.21 130.37 389.013 128.534 385.771 124.75C382.54 120.988 380.903 115.82 380.903 109.388C380.903 102.957 382.54 97.7882 385.771 94.0202C388.971 90.2884 393.291 88.3997 398.609 88.3997C403.925 88.3997 408.623 90.3157 411.926 94.1053C415.261 97.9252 416.952 103.121 416.952 109.536C416.952 113.693 416.18 117.395 414.659 120.546L414.659 120.55ZM288.249 41.3585H263.404V61.6055H288.249V41.3585ZM523.309 82.3305C519.535 77.8365 514.804 74.3142 509.247 71.8575C503.697 69.4041 497.453 68.153 490.7 68.153C482.423 68.153 474.956 70.0327 468.5 73.7372C462.03 77.4538 456.894 82.6159 453.233 89.0892C449.571 95.557 447.715 103.063 447.715 111.392C447.715 119.721 449.517 127.722 453.066 134.29C456.625 140.88 461.741 146.047 468.271 149.663C474.787 153.259 482.441 155.084 491.02 155.084C501.551 155.084 510.49 152.436 517.596 147.209C524.439 142.182 529.146 135.088 531.71 126.209H507.7C506.437 129.231 504.657 131.803 502.109 133.616C499.097 135.753 495.207 136.837 490.543 136.837C486.499 136.837 483.034 135.853 480.244 133.916C477.442 131.979 475.301 129.115 473.895 125.396C473.051 123.185 472.453 120.644 472.1 117.817H532.129L532.247 117.07C533.319 110.295 533.049 103.876 531.434 97.9918C529.815 92.0919 527.083 86.8238 523.31 82.3298L523.309 82.3305ZM472.479 102.265C472.846 100.556 473.341 98.7766 473.97 97.1551C475.434 93.3868 477.546 90.4869 480.255 88.5497C482.952 86.6124 486.308 85.6346 490.23 85.6346C495.147 85.6346 499.182 87.2287 502.224 90.3654C505.109 93.3502 506.745 97.4282 507.094 102.265H472.481L472.479 102.265ZM287.759 69.6985H263.91V153.7H287.759V69.6985ZM237.323 94.9145C241.686 92.4367 245.182 89.3516 247.726 85.7138C250.626 81.572 252.099 76.8412 252.099 71.6608C252.099 61.9623 248.473 54.3918 241.328 49.1578C234.268 43.9836 224.555 41.3631 212.448 41.3631H168.671V153.703H214.197C226.947 153.703 237.156 150.738 244.537 144.888C251.977 138.988 255.754 130.726 255.754 120.326C255.754 113.994 253.978 108.547 250.48 104.138C247.341 100.196 242.921 97.096 237.326 94.9128L237.323 94.9145ZM192.361 61.6105H210.544C216.247 61.6105 220.552 62.7158 223.349 64.89C226.112 67.0368 227.455 69.8577 227.455 73.5106C227.455 77.1635 226.112 80.1271 223.349 82.2831C220.552 84.4572 216.247 85.5625 210.544 85.5625H192.361V61.6105ZM226.592 129.649C223.44 132.176 218.628 133.453 212.29 133.453H192.361V105.961H212.29C218.624 105.961 223.442 107.197 226.606 109.623C229.743 112.044 231.268 115.238 231.268 119.401C231.268 123.779 229.737 127.131 226.592 129.652L226.592 129.649Z" fill="#03AAC1"></path></svg>