<svg xmlns="http://www.w3.org/2000/svg" width="746" height="106" viewBox="0 0 746 106" fill="none"><g clip-path="url(#clip0_1074_308)"><path d="M150.201 71.1988L119.401 17.7988C112.601 6.69881 96.2008 6.49881 89.7008 18.2988L57.3008 73.8988C51.3008 84.0988 58.7008 96.8988 70.8008 96.8988H135.601C147.801 96.8988 156.901 83.6988 150.201 71.1988Z" fill="#00B897"></path><path d="M105.7 75.3991L103.8 72.0991C102 68.9991 98.1002 62.3991 98.1002 62.3991L72.0001 17.0991C66.8001 9.19909 56.2001 7.09909 48.3001 12.2991C45.8001 13.8991 43.8001 16.1991 42.5001 18.8991L12.2001 71.3991C7.50014 79.4991 10.3001 89.8991 18.5001 94.5991C21.1001 96.0991 24.0001 96.8991 27.0001 96.8991H135.3C118.6 96.9991 113.3 88.2991 105.7 75.3991Z" fill="#76FCB2"></path><path d="M105.7 75.4008L103.8 72.1008C102 69.0008 98.0997 62.4008 98.0997 62.4008L81.2997 32.8008L57.0997 74.0008C51.0997 84.2008 58.4997 97.0008 70.5997 97.0008H135.3C118.5 96.9008 113.3 88.3008 105.7 75.4008Z" fill="url(#paint0_linear_1074_308)"></path><path d="M731.4 92.7C727.7 92.8 724.1 91.9 721 90.1C718.3 88.4 716.7 85.4 716.9 82.2V30.5H723.8C726.3 30.5 728.4 32.6 728.4 35.1V80.6C728.5 82.1 729.1 83.5 730.2 84.6C731.3 85.7 732.8 86.3 734.3 86.3H735.6C736.1 86.3 736.6 86.7 736.6 87.3V92.9L731.4 92.7Z" fill="#00B897"></path><path d="M583.3 92.6985C576.2 92.6985 570.4 90.7984 566 86.9984C563.9 85.2984 562.3 83.0984 561.3 80.5984C560.3 78.1984 559.9 74.7985 559.9 70.1985C559.9 65.5985 560.4 62.0984 561.3 59.7984C562.3 57.3984 563.9 55.2984 565.9 53.5984C570.3 49.7984 576.1 47.8984 583.2 47.8984C590.3 47.8984 596.1 49.7984 600.5 53.5984C602.5 55.1984 604.1 57.3984 605.1 59.7984C606.2 63.1984 606.7 66.6984 606.5 70.2984C606.5 74.8984 606 78.3985 605.1 80.6985C604.1 83.1985 602.5 85.3984 600.4 87.0984C596.3 90.7984 590.4 92.6985 583.3 92.6985ZM583.3 54.4984C575.5 54.4984 571.6 59.7984 571.6 70.3984C571.6 80.9984 575.5 86.3984 583.3 86.3984C591.1 86.3984 595 81.0984 595 70.4984C595 59.8984 591 54.4984 583.3 54.4984Z" fill="#00B897"></path><path d="M632.4 92.7C626.5 92.8 620.7 91.1 615.7 87.8C614.9 87.1 614 86.5 613.1 86C612.8 85.8 612.6 85.5 612.6 85.2V30.5H619.6C622.1 30.5 624.2 32.6 624.2 35.1V51.1L626.3 49.9C628.8 48.6 632.1 48 636.4 48C643.9 48 649.6 50.3 653.3 54.6C656.6 58.5 658.3 63.7 658.3 70.1C658.3 76.5 656.4 81.7 652.6 85.5C648.3 90.4 641.4 92.7 632.4 92.7ZM633.5 54.5C630.9 54.5 627.9 55.5 624.6 57.5L624.1 57.7V83.4L624.6 83.8C627.3 85.5 630.3 86.3 633.5 86.3C637.5 86.4 641.3 84.4 643.3 81C645.3 77.8 646.4 74.1 646.3 70.3C646.3 59.8 642 54.5 633.5 54.5Z" fill="#00B897"></path><path d="M685.7 92.5999C672.7 92.5999 664.5 84.0999 664.5 70.1999C664.5 56.2999 672.5 47.8999 685.5 47.8999C690 47.7999 694.5 49.0999 698.2 51.6999L698.9 52.1999V48.7999H708C708.5 48.7999 708.9 49.1999 708.9 49.6999V91.7999H698.7V87.9999L698 88.5999C695.2 91.1999 690.7 92.5999 685.7 92.5999ZM688 55.4999C679.8 55.4999 675 61.7999 675 70.1999C675 78.5999 679.9 85.0999 688 85.0999C690.6 85.0999 695.1 84.8999 698.7 81.2999L698.8 81.1999V59.5999L698.7 59.4999C696.3 56.6999 692.6 55.4999 688 55.4999Z" fill="#00B897"></path><path d="M264.801 92.2V30.5H316.101V34.4C316.101 37.5 313.601 40 310.501 40H277.501V56.5H310.501V66H277.501V82.6H310.501C313.601 82.6 316.101 85.1 316.101 88.2V92.1L264.801 92.2Z" fill="white"></path><path d="M389.7 30.3984H377.6C375.4 30.3984 373.3 31.3984 371.9 33.0984L357.4 51.4984L342.8 33.1985C341.4 31.4985 339.3 30.4984 337.1 30.4984H325L349.5 61.2984L325 92.0984H337.1C339.3 92.0984 341.4 91.0984 342.8 89.3984L357.4 71.1985L372.1 89.5984C373.5 91.2984 375.6 92.2984 377.8 92.2984H389.9L365.3 61.4984L389.7 30.3984Z" fill="white"></path><path d="M224.6 85.6019L241.4 56.2019V92.0019H254.2V30.3019H246.3C243.8 30.3019 241.5 31.6019 240.3 33.8019L220.2 70.5019L200.1 33.8019C198.9 31.6019 196.6 30.2019 194.1 30.3019H186.1V92.0019H198.9V56.2019L215.7 85.6019H224.6Z" fill="white"></path><path d="M423.101 92.8992C405.601 93.2992 391.101 79.3992 390.801 61.8992C390.801 61.6992 390.801 61.5992 390.801 61.3992C390.801 51.6992 393.801 43.5992 399.301 38.0992C404.801 32.5992 412.901 29.6992 422.501 29.6992C433.801 29.6992 442.601 33.5992 449.001 41.1992L445.001 44.5992C442.501 46.6992 438.801 46.7992 436.101 44.7992C432.301 41.9992 427.701 40.5992 423.001 40.7992C410.401 40.7992 403.001 48.3992 403.001 61.1992C403.001 73.9992 410.701 82.0992 423.001 82.0992C427.701 82.1992 432.301 80.7992 436.101 78.0992C438.801 76.0992 442.401 76.1992 445.001 78.2992L449.001 81.6992C442.701 89.0992 434.101 92.8992 423.101 92.8992Z" fill="white"></path><path d="M501.899 92.8008C481.999 92.8008 469.699 80.7008 469.699 61.3008C469.699 41.9008 481.999 29.8008 501.699 29.8008C511.199 29.8008 519.099 32.5008 525.299 38.1008L522.299 41.4008C520.199 43.7008 516.899 44.3008 514.099 42.9008C510.199 41.0008 505.999 40.0008 501.699 40.0008C488.899 40.0008 480.999 48.2008 480.999 61.3008C480.999 74.4008 489.299 82.7008 502.599 82.7008C508.999 82.7008 513.999 81.5008 517.599 78.9008L517.799 78.8008V66.1008H503.699V62.0008C503.699 58.9008 506.199 56.4008 509.299 56.4008H526.699C527.199 56.4008 527.699 56.8008 527.699 57.4008V84.8008C521.599 90.1008 512.899 92.8008 501.899 92.8008Z" fill="#00B897"></path><path d="M550.501 92.7C546.801 92.8 543.201 91.9 540.101 90.1C537.401 88.4 535.801 85.4 535.901 82.2V30.5H542.801C545.401 30.5 547.401 32.6 547.401 35.1V80.6C547.501 82.1 548.101 83.5 549.201 84.6C550.301 85.7 551.801 86.3 553.301 86.3H554.601C555.101 86.3 555.601 86.7 555.601 87.3V92.9L550.501 92.7Z" fill="#00B897"></path></g><defs><linearGradient id="paint0_linear_1074_308" x1="48.5675" y1="55.2868" x2="123.437" y2="82.9468" gradientUnits="userSpaceOnUse"><stop stop-color="#53E57A" stop-opacity="0"></stop><stop offset="1" stop-color="#00A977"></stop></linearGradient><clipPath id="clip0_1074_308"><rect width="746" height="106" fill="white"></rect></clipPath></defs></svg>