<svg xmlns="http://www.w3.org/2000/svg" width="695" height="144" viewBox="0 0 695 144" fill="none"><g clip-path="url(#clip0_1075_425)"><mask id="mask0_1075_425" style="mask-type:luminance" maskUnits="userSpaceOnUse" x="-27" y="-303" width="750" height="750"><path d="M723 -303H-27V447H723V-303Z" fill="white"></path></mask><g mask="url(#mask0_1075_425)"><path d="M30.3 15.9002C47.4 3.40021 70.3 -1.39979 90.9 4.40021C111.5 9.60021 128.8 24.8002 137.4 44.1002C127.2 43.9002 116.9 47.6002 109.8 55.1002C100 64.8002 90.1 74.5002 80.4 84.3002C80.4 73.9002 80.4 63.5002 80.5 53.1002C80.4 49.2002 80.3 44.7002 77.4 41.7002C72.9 35.8002 63.2 35.8002 58.2 41.1002C46.7 52.3002 35.4 63.7002 24 75.0002C18.9 81.3002 10.6 82.9002 2.9 81.8002C2.7 80.5002 2.2 77.8002 2 76.5002V66.5002C3.9 46.7002 14.2 27.8002 30.3 15.9002ZM301.3 30.3002C311.9 28.0002 323.8 31.0002 331 39.4002C340.3 50.3002 342.6 65.5002 341.4 79.4002C340.2 90.0002 336.3 101 327.9 108.1C315.3 118.9 293.7 116.9 283.9 103.2C274.5 90.2002 273.1 72.7002 276.6 57.4002C279.3 44.9002 288.2 32.7002 301.3 30.3002ZM303.7 42.3002C299.2 43.5002 295.9 47.3002 293.4 51.1002C288.6 60.2002 288 70.9002 289.5 80.9002C290.7 87.5002 292.8 94.4002 297.9 99.0002C304 104.8 314.7 103.9 320.1 97.5002C327 89.6002 328.1 78.5002 327.4 68.4002C327 60.1002 324.9 50.9002 318.3 45.3002C314.4 41.7002 308.6 41.0002 303.7 42.3002ZM197.7 39.1002C197.5 34.5002 201.5 29.9002 206.3 30.2002C209.9 29.8002 212.7 32.5002 214.2 35.5002C223.5 52.3002 232.6 69.2002 242 86.0002C242.3 69.1002 241.7 52.1002 242.3 35.2002C243.7 28.0002 255.8 29.1002 255.8 36.5002C256.1 58.2002 255.8 79.9002 256 101.7C255.9 105.1 256.5 109.1 253.8 111.7C250.7 115.4 243.8 115.4 241.5 110.8C231.2 92.9002 222.1 74.4002 211.6 56.6002C211.3 73.9002 211.8 91.2002 211.4 108.4C211.4 113.2 205.3 115.7 201.4 113.5C198.5 112.3 198 108.6 197.8 105.8C197.7 83.6002 197.7 61.4002 197.7 39.1002ZM361 40.5002C360.7 32.8002 370.1 27.7002 376.7 31.3002C381.6 34.0002 382.6 39.9002 384.2 44.7002C388.7 58.1002 392.9 71.6002 397.6 85.0002C402.9 69.6002 407.9 54.2002 413 38.8002C414.2 34.3002 418.1 29.8002 423.2 30.3002C429.6 29.6002 434.7 35.8002 434.4 41.9002C434.5 62.8002 434.4 83.7002 434.5 104.6C434.5 107.8 434.1 112.1 430.8 113.6C427 115.8 420.9 113.2 420.9 108.6C420.4 90.8002 421.3 73.0002 420.5 55.2002C413.5 73.8002 407.8 92.9002 401.1 111.6C400.4 114.9 395.9 115.4 394.4 112.5C387.5 93.4002 381.8 73.8002 374.8 54.7002C374.7 72.3002 374.9 89.8002 374.7 107.4C375 112.4 369.4 116.1 364.9 113.9C361.6 112.9 360.8 109 361 106C361 84.1002 360.9 62.3002 361 40.5002ZM459.4 31.0002C463.6 28.8002 469.9 31.2002 469.8 36.4002C470 60.0002 469.9 83.7002 469.9 107.3C470.2 111 467.2 114.6 463.4 114.5C459.5 114.9 456.1 111.2 456.3 107.4C456.2 84.2002 456.3 60.9002 456.3 37.7002C456.1 35.1002 457.4 32.5002 459.4 31.0002ZM492.4 37.7002C492.5 31.2002 501.9 27.5002 506.4 32.2002C509.5 35.8002 511.3 40.4002 513.7 44.5002C521.5 58.3002 528.8 72.4002 536.7 86.1002C536.8 69.5002 536.6 52.9002 536.8 36.3002C536.7 32.0002 541.6 29.2002 545.5 30.4002C548.8 31.0002 550.6 34.6002 550.3 37.7002C550.3 60.8002 550.4 83.9002 550.2 107C550.3 113.2 541.7 116.6 537.3 112.5C535.1 109.9 533.7 106.8 532.1 103.9C523.5 88.1002 514.9 72.2002 506.3 56.4002C506.1 72.9002 506.3 89.4002 506.2 106C506.3 109.1 505.2 112.8 501.8 113.6C499.2 115.1 496.5 113.3 493.9 112.6C492.7 110 492.1 107.3 492.2 104.4C492.4 82.2002 492.1 60.0002 492.4 37.7002ZM572.6 37.8002C572.3 33.7002 576 30.7002 579.9 30.9002C590.7 30.8002 601.5 30.8002 612.2 30.9002C615.4 30.8002 618.7 33.2002 619.1 36.5002C618.9 39.6002 616.7 42.7002 613.4 42.8002C604.4 43.1002 595.3 42.7002 586.3 42.9002C586.3 50.4002 586.3 57.9002 586.4 65.4002C595.4 65.6002 604.4 65.1002 613.3 65.6002C617.4 66.0002 619.5 71.6002 616.9 74.7002C615.3 77.3002 612 77.4002 609.2 77.4002C601.5 77.4002 593.9 77.4002 586.3 77.3002C586.3 85.4002 586.3 93.5002 586.3 101.6C595.4 101.6 604.6 101.4 613.7 101.6C616.9 101.7 618.2 104.8 619.5 107.3C618.4 110 616.8 113.4 613.3 113.4C601.8 113.6 590.2 113.7 578.7 113.3C574.7 113.4 572.1 109.4 572.5 105.6C572.5 83.1002 572.5 60.4002 572.6 37.8002ZM634 35.1002C635 29.8002 643.2 28.2002 645.8 33.0002C651.8 42.2002 657.3 51.7002 663.2 60.9002C669.1 51.6002 674.6 42.0002 680.7 32.7002C683 28.8002 689.3 29.7002 691.6 33.2002C693.1 36.2002 692.2 39.8002 690.3 42.4002C684 51.9002 677.8 61.5002 671.6 71.1002C679 83.0002 687.1 94.5002 694 106.6V109.3C692.8 111.1 691.8 113.3 689.5 113.9C685.9 115.4 682.1 112.7 680.4 109.6C674.6 100.3 668.9 91.1002 663.1 81.8002C656.9 91.4002 651 101.2 644.8 110.8C642.5 115.1 635.6 115.3 633.4 110.8C631.2 107.6 633.5 104.1 635.2 101.3C641.8 91.2002 648.3 81.1002 654.8 71.0002C648.5 61.5002 642.5 51.9002 636.3 42.4002C635 40.3002 633.2 37.8002 634 35.1002Z" fill="#00A0FF"></path></g><path d="M33.1992 89.7992C43.2992 80.0992 53.0992 69.8992 63.1992 60.1992C63.3992 71.7992 63.0992 83.3992 63.2992 94.9992C63.0992 102.099 69.9992 108.299 77.0992 107.199C80.9992 107.099 84.1992 104.499 86.8992 101.899C98.9992 89.8992 110.999 77.7992 123.199 65.8992C128.299 60.6992 135.899 60.8992 142.599 61.5992C143.299 70.7992 143.499 80.0992 140.899 88.9992C135.799 109.199 121.099 126.699 102.099 135.099C92.6992 139.799 82.1992 140.799 71.9992 141.999H70.6992C62.7992 140.999 54.7992 139.999 47.3992 136.999C29.6992 130.599 15.4992 116.399 7.69922 99.4992C16.8992 99.0992 26.4992 96.4992 33.1992 89.7992Z" fill="#80D0FF"></path></g><defs><clipPath id="clip0_1075_425"><rect width="695" height="144" fill="white"></rect></clipPath></defs></svg>