<svg xmlns="http://www.w3.org/2000/svg" width="1613" height="344" viewBox="0 0 1613 344" fill="none"><path d="M1536.74 101V51.5455H1557.17C1560.87 51.5455 1564.07 52.2135 1566.76 53.5497C1569.46 54.8698 1571.55 56.7694 1573.01 59.2486C1574.48 61.7116 1575.21 64.6335 1575.21 68.0142C1575.21 71.4432 1574.46 74.357 1572.96 76.7557C1571.47 79.1383 1569.34 80.9574 1566.59 82.2131C1563.84 83.4527 1560.58 84.0724 1556.81 84.0724H1543.89V74.6548H1554.59C1556.39 74.6548 1557.9 74.4214 1559.1 73.9545C1560.33 73.4716 1561.25 72.7472 1561.88 71.7812C1562.51 70.7992 1562.82 69.5436 1562.82 68.0142C1562.82 66.4848 1562.51 65.2211 1561.88 64.223C1561.25 63.2088 1560.33 62.4522 1559.1 61.9531C1557.88 61.438 1556.38 61.1804 1554.59 61.1804H1548.7V101H1536.74ZM1564.59 78.3977L1576.9 101H1563.86L1551.79 78.3977H1564.59Z" fill="white"></path><path d="M1556 125C1583.06 125 1605 103.062 1605 76C1605 48.938 1583.06 27 1556 27C1528.94 27 1507 48.938 1507 76C1507 103.062 1528.94 125 1556 125Z" stroke="white" stroke-width="10"></path><mask id="mask0_94_54" style="mask-type:luminance" maskUnits="userSpaceOnUse" x="0" y="0" width="1509" height="344"><path d="M1509 0H0V344H1509V0Z" fill="white"></path></mask><g mask="url(#mask0_94_54)"><path d="M471.812 199.606H414.366V156.601H471.812C479.641 156.601 485.989 155.279 490.855 152.634C495.722 149.989 499.266 146.339 501.488 141.684C503.815 136.923 504.979 131.581 504.979 125.656C504.979 119.309 503.815 113.437 501.488 108.042C499.266 102.646 495.722 98.3079 490.855 95.0283C485.989 91.6429 479.641 89.9502 471.812 89.9502H435.313V278H379.613V46.9448H471.812C490.326 46.9448 506.248 50.3302 519.579 57.1011C533.014 63.8719 543.329 73.1818 550.523 85.0307C557.717 96.7739 561.314 110.21 561.314 125.339C561.314 140.256 557.717 153.269 550.523 164.377C543.329 175.485 533.014 184.16 519.579 190.402C506.248 196.538 490.326 199.606 471.812 199.606ZM645.262 106.296V278H591.624V106.296H645.262ZM588.451 62.0205C588.451 54.4033 591.201 48.1614 596.703 43.2949C602.204 38.4284 609.345 35.9951 618.126 35.9951C626.907 35.9951 634.048 38.4284 639.549 43.2949C645.051 48.1614 647.801 54.4033 647.801 62.0205C647.801 69.6377 645.051 75.8795 639.549 80.7461C634.048 85.6126 626.907 88.0459 618.126 88.0459C609.345 88.0459 602.204 85.6126 596.703 80.7461C591.201 75.8795 588.451 69.6377 588.451 62.0205ZM768.724 106.296V143.43H665.257V106.296H768.724ZM686.998 63.6074H740.477V221.982C740.477 226.531 741.006 230.075 742.064 232.614C743.122 235.048 744.92 236.793 747.459 237.851C750.104 238.803 753.595 239.279 757.933 239.279C761.001 239.279 763.54 239.226 765.55 239.121C767.56 238.909 769.465 238.645 771.263 238.327V276.572C766.714 278.053 761.953 279.164 756.981 279.904C752.009 280.751 746.719 281.174 741.112 281.174C729.686 281.174 719.9 279.375 711.754 275.778C703.713 272.181 697.577 266.521 693.346 258.798C689.114 251.075 686.998 241.025 686.998 228.647V63.6074ZM911.546 216.586C911.546 212.989 911.017 209.763 909.959 206.906C908.901 203.944 906.944 201.193 904.088 198.654C901.231 196.115 897.105 193.576 891.71 191.037C886.42 188.392 879.438 185.642 870.763 182.785C860.606 179.4 850.82 175.591 841.405 171.359C831.989 167.022 823.578 161.997 816.173 156.284C808.767 150.465 802.896 143.694 798.558 135.971C794.22 128.142 792.052 119.044 792.052 108.676C792.052 98.7311 794.273 89.7915 798.717 81.8569C803.16 73.8166 809.349 66.9928 817.284 61.3857C825.324 55.6728 834.74 51.3353 845.531 48.373C856.322 45.305 868.118 43.771 880.919 43.771C897.846 43.771 912.763 46.7332 925.67 52.6577C938.683 58.4764 948.839 66.7812 956.139 77.5723C963.544 88.2575 967.247 100.9 967.247 115.5H911.864C911.864 109.681 910.647 104.55 908.214 100.107C905.886 95.6631 902.342 92.1719 897.581 89.6328C892.821 87.0937 886.843 85.8242 879.649 85.8242C872.667 85.8242 866.795 86.8821 862.035 88.998C857.274 91.1139 853.677 93.9704 851.244 97.5674C848.81 101.059 847.594 104.921 847.594 109.152C847.594 112.644 848.546 115.817 850.45 118.674C852.46 121.424 855.264 124.016 858.861 126.45C862.564 128.883 867.007 131.21 872.191 133.432C877.481 135.654 883.405 137.823 889.964 139.938C902.236 143.853 913.133 148.243 922.655 153.11C932.282 157.871 940.375 163.319 946.935 169.455C953.6 175.485 958.625 182.362 962.01 190.085C965.501 197.808 967.247 206.536 967.247 216.269C967.247 226.637 965.237 235.841 961.217 243.881C957.197 251.922 951.431 258.745 943.919 264.353C936.408 269.854 927.415 274.033 916.942 276.889C906.468 279.746 894.778 281.174 881.871 281.174C870.022 281.174 858.332 279.693 846.8 276.73C835.374 273.662 825.007 269.007 815.697 262.766C806.387 256.418 798.928 248.325 793.321 238.486C787.82 228.541 785.069 216.745 785.069 203.098H840.929C840.929 209.868 841.828 215.581 843.626 220.236C845.425 224.891 848.07 228.647 851.561 231.503C855.052 234.254 859.337 236.264 864.415 237.534C869.493 238.697 875.312 239.279 881.871 239.279C888.959 239.279 894.672 238.274 899.01 236.264C903.347 234.148 906.521 231.398 908.531 228.012C910.541 224.521 911.546 220.712 911.546 216.586ZM1045.96 142.954V278H992.479V106.296H1042.63L1045.96 142.954ZM1039.61 186.276L1027.08 186.594C1027.08 173.475 1028.66 161.785 1031.84 151.523C1035.01 141.155 1039.51 132.374 1045.33 125.18C1051.14 117.986 1058.07 112.538 1066.11 108.835C1074.26 105.026 1083.31 103.122 1093.25 103.122C1101.18 103.122 1108.43 104.286 1114.99 106.613C1121.66 108.941 1127.37 112.696 1132.13 117.88C1137 123.064 1140.7 129.941 1143.24 138.51C1145.88 146.974 1147.21 157.447 1147.21 169.931V278H1093.41V169.772C1093.41 162.896 1092.46 157.659 1090.55 154.062C1088.65 150.359 1085.9 147.82 1082.3 146.445C1078.7 145.069 1074.31 144.382 1069.13 144.382C1063.63 144.382 1058.97 145.44 1055.16 147.556C1051.36 149.672 1048.29 152.634 1045.96 156.442C1043.74 160.145 1042.1 164.536 1041.04 169.614C1040.09 174.692 1039.61 180.246 1039.61 186.276ZM1266.06 234.836V164.06C1266.06 159.193 1265.38 155.014 1264 151.523C1262.63 148.032 1260.46 145.334 1257.5 143.43C1254.53 141.42 1250.57 140.415 1245.59 140.415C1241.57 140.415 1238.14 141.102 1235.28 142.478C1232.42 143.853 1230.25 145.916 1228.77 148.667C1227.29 151.417 1226.55 154.908 1226.55 159.14H1173.07C1173.07 151.206 1174.82 143.853 1178.31 137.082C1181.91 130.205 1186.98 124.228 1193.54 119.15C1200.21 114.072 1208.14 110.157 1217.35 107.407C1226.66 104.55 1237.02 103.122 1248.45 103.122C1262.1 103.122 1274.26 105.397 1284.95 109.946C1295.74 114.495 1304.26 121.319 1310.5 130.417C1316.74 139.41 1319.86 150.729 1319.86 164.377V234.677C1319.86 245.891 1320.5 254.408 1321.77 260.227C1323.04 265.939 1324.83 270.965 1327.16 275.302V278H1273.52C1270.98 272.71 1269.08 266.257 1267.81 258.64C1266.65 250.917 1266.06 242.982 1266.06 234.836ZM1272.57 173.105L1272.89 201.669H1249.24C1244.27 201.669 1240.04 202.357 1236.55 203.732C1233.16 205.108 1230.41 207.012 1228.3 209.445C1226.29 211.773 1224.81 214.418 1223.85 217.38C1223.01 220.342 1222.58 223.463 1222.58 226.743C1222.58 229.917 1223.32 232.773 1224.81 235.312C1226.39 237.745 1228.51 239.65 1231.15 241.025C1233.8 242.4 1236.76 243.088 1240.04 243.088C1245.96 243.088 1250.99 241.977 1255.12 239.755C1259.35 237.428 1262.57 234.624 1264.8 231.345C1267.02 228.065 1268.13 224.997 1268.13 222.141L1279.87 244.04C1277.76 248.272 1275.32 252.556 1272.57 256.894C1269.93 261.232 1266.59 265.251 1262.57 268.954C1258.66 272.551 1253.85 275.514 1248.13 277.841C1242.42 280.063 1235.49 281.174 1227.34 281.174C1216.76 281.174 1207.03 279.005 1198.15 274.667C1189.36 270.33 1182.33 264.3 1177.04 256.577C1171.75 248.748 1169.1 239.755 1169.1 229.599C1169.1 220.712 1170.69 212.778 1173.87 205.795C1177.14 198.813 1182.06 192.889 1188.62 188.022C1195.18 183.155 1203.54 179.453 1213.7 176.914C1223.85 174.375 1235.81 173.105 1249.56 173.105H1272.57ZM1403.49 139.304V344.016H1350.01V106.296H1399.84L1403.49 139.304ZM1508.86 190.085V193.417C1508.86 205.901 1507.43 217.486 1504.58 228.171C1501.72 238.856 1497.49 248.166 1491.88 256.101C1486.28 264.035 1479.29 270.224 1470.94 274.667C1462.68 279.005 1453.11 281.174 1442.21 281.174C1431.95 281.174 1423.12 278.899 1415.71 274.35C1408.31 269.801 1402.12 263.506 1397.14 255.466C1392.17 247.425 1388.15 238.221 1385.08 227.854C1382.02 217.486 1379.58 206.536 1377.78 195.004V190.72C1379.58 178.342 1382.02 166.863 1385.08 156.284C1388.15 145.598 1392.17 136.289 1397.14 128.354C1402.12 120.419 1408.25 114.23 1415.55 109.787C1422.96 105.344 1431.79 103.122 1442.05 103.122C1452.95 103.122 1462.52 105.185 1470.78 109.311C1479.13 113.437 1486.12 119.361 1491.72 127.084C1497.44 134.702 1501.72 143.853 1504.58 154.538C1507.43 165.223 1508.86 177.072 1508.86 190.085ZM1455.38 193.417V190.085C1455.38 183.42 1454.91 177.337 1453.96 171.835C1453 166.228 1451.47 161.362 1449.35 157.236C1447.34 153.11 1444.65 149.936 1441.26 147.714C1437.87 145.493 1433.7 144.382 1428.72 144.382C1423.01 144.382 1418.2 145.281 1414.28 147.08C1410.47 148.772 1407.41 151.417 1405.08 155.014C1402.86 158.505 1401.27 162.896 1400.32 168.186C1399.47 173.369 1399.1 179.453 1399.21 186.435V199.448C1399 207.488 1399.79 214.576 1401.59 220.712C1403.39 226.743 1406.51 231.451 1410.95 234.836C1415.39 238.221 1421.42 239.914 1429.04 239.914C1434.12 239.914 1438.35 238.75 1441.74 236.423C1445.12 233.99 1447.82 230.657 1449.83 226.425C1451.84 222.088 1453.27 217.115 1454.11 211.508C1454.96 205.901 1455.38 199.871 1455.38 193.417Z" fill="white"></path><path d="M165.5 332C256.903 332 331 257.903 331 166.5C331 75.0969 256.903 1 165.5 1C74.0969 1 0 75.0969 0 166.5C0 257.903 74.0969 332 165.5 332Z" fill="#6FFF00"></path><path d="M111.5 173C153.197 173 187 139.197 187 97.5C187 55.8025 153.197 22 111.5 22C69.8025 22 36 55.8025 36 97.5C36 139.197 69.8025 173 111.5 173Z" fill="black"></path></g></svg>