<svg xmlns="http://www.w3.org/2000/svg" width="360" height="97" viewBox="0 0 360 97" fill="none"><g clip-path="url(#clip0_1075_389)"><rect x="14" y="15" width="56" height="55" rx="14" fill="#D9D9D9"></rect><path d="M52.9383 28.1611L45.0023 23.5616C43.497 22.8076 41.7208 22.8076 40.2155 23.5616L32.2795 28.1611C30.5789 29.1623 30.5474 30.7893 32.2795 31.7593L40.2155 36.4213C41.7114 37.2036 43.5064 37.2036 45.0023 36.4213L52.9383 31.7593C53.7036 31.4902 54.2169 30.7674 54.2169 29.9602C54.2169 29.1529 53.7036 28.4302 52.9383 28.1611Z" fill="#4231C8"></path><path d="M83.8952 22.4677L45.5377 0.565545C44.0324 -0.188515 42.2562 -0.188515 40.7509 0.565545L2.39341 22.4677C0.988855 23.3939 0.103924 24.927 0 26.5978V70.4021C0.103924 72.073 0.988855 73.6061 2.39341 74.5323L40.7509 96.4344C42.2562 97.1885 44.0324 97.1885 45.5377 96.4344L83.8952 74.5323C85.2998 73.6061 86.1847 72.073 86.2886 70.4021V26.5978C86.1847 24.927 85.2998 23.3939 83.8952 22.4677ZM66.8264 32.6366L45.0024 45.4024C43.5065 46.1846 41.7114 46.1846 40.2155 45.4024L26.359 37.3299C24.6584 36.2974 23.2098 37.1109 23.2098 39.0821V63.5186C23.2255 63.6187 23.2318 63.7157 23.2318 63.8159C23.2318 64.8984 22.3374 65.787 21.2478 65.787C20.8195 65.787 20.4038 65.6494 20.0605 65.3959L17.6986 64.1757C16.2531 63.309 15.3336 61.7821 15.2422 60.1081V33.5752C15.3461 31.9044 16.2311 30.3713 17.6356 29.4451L40.184 16.429C41.6894 15.6749 43.4655 15.6749 44.9709 16.429L66.795 28.9445C67.6452 29.1572 68.2436 29.9238 68.2436 30.7937C68.2436 31.6541 67.661 32.4113 66.8264 32.6366Z" fill="#4231C8"></path><path d="M131.574 79.474C131.571 79.449 131.571 79.4271 131.571 79.4021C131.571 79.0767 131.839 78.8076 132.169 78.8076C132.201 78.8076 132.235 78.8107 132.267 78.817H133.59C133.952 78.817 134.251 79.1142 134.251 79.474V86.295C134.229 86.5578 134.075 86.7956 133.841 86.9208C131.804 88.4226 129.335 89.2361 126.8 89.2361C120.319 89.2361 114.99 83.9389 114.99 77.5028C114.99 71.0667 120.319 65.7695 126.8 65.7695C128.248 65.7695 129.684 66.0355 131.039 66.5518C132.109 66.9585 134.188 67.8972 134.188 68.6794C134.219 68.7826 134.219 68.889 134.188 68.9923L133.527 70.1187C133.423 70.322 133.218 70.4535 132.991 70.4629C132.783 70.4566 132.582 70.3784 132.424 70.2438C130.831 69.0955 128.913 68.4729 126.945 68.4604C126.768 68.451 126.589 68.4447 126.409 68.4447C121.434 68.4447 117.34 72.5123 117.34 77.4559C117.34 82.3995 121.434 86.4671 126.409 86.4671C126.589 86.4671 126.768 86.4608 126.945 86.4514C128.655 86.4827 130.333 86.004 131.763 85.0747L131.574 79.474Z" fill="white"></path><path d="M144.235 86.2664H155.418C155.764 86.2664 156.048 86.548 156.048 86.8922C156.048 86.9109 156.048 86.9329 156.044 86.9548V88.2063C156.044 88.5661 155.745 88.8634 155.383 88.8634H142.282C142.248 88.8696 142.213 88.8728 142.178 88.8728C141.851 88.8728 141.58 88.6037 141.58 88.2783C141.58 88.2438 141.583 88.2094 141.59 88.175V66.7703C141.59 66.4105 141.889 66.1133 142.251 66.1133C142.27 66.1133 142.292 66.1133 142.314 66.1164H143.608C143.955 66.1164 144.238 66.398 144.238 66.7422C144.238 66.761 144.238 66.7829 144.235 66.8048V86.2664Z" fill="white"></path><path d="M183.443 77.5655C183.358 83.9265 178.067 89.1111 171.665 89.1111C165.206 89.1111 159.887 83.8295 159.887 77.409C159.887 70.9886 165.203 65.707 171.665 65.707H171.696C178.143 65.707 183.443 70.9761 183.443 77.3778V77.5655ZM171.665 86.5454H171.696C176.688 86.5454 180.798 82.4622 180.798 77.5029C180.798 72.5436 176.688 68.4604 171.696 68.4604C166.705 68.4604 162.595 72.5436 162.595 77.5029V77.5342C162.595 82.4778 166.689 86.5454 171.665 86.5454Z" fill="white"></path><path d="M204.322 76.6905C206.328 77.8638 207.563 80.0133 207.563 82.3256C207.563 85.8424 204.71 88.7586 201.173 88.8618H191.127C191.105 88.8649 191.083 88.8649 191.064 88.8649C190.702 88.8649 190.403 88.5677 190.403 88.2079V66.8658C190.396 66.8345 190.396 66.8001 190.396 66.7688C190.396 66.409 190.693 66.1117 191.058 66.1117C191.08 66.1117 191.105 66.1117 191.127 66.1149H200.228C200.345 66.1086 200.458 66.1055 200.575 66.1055C203.841 66.1055 206.527 68.7744 206.527 72.0191V72.0597C206.492 73.8432 205.689 75.5297 204.322 76.6905ZM200.197 68.837H193.048V75.877H200.197C202.137 75.8363 203.708 74.2374 203.708 72.31C203.708 72.1943 203.705 72.0816 203.692 71.9659V71.9471C203.692 70.2293 202.272 68.8182 200.543 68.8182C200.427 68.8182 200.313 68.8245 200.197 68.837ZM193.048 78.3801V86.2648H201.236C203.412 86.2648 205.204 84.4845 205.204 82.3224C205.204 80.1604 203.412 78.3801 201.236 78.3801H193.048Z" fill="white"></path><path d="M215.47 88.2349C215.369 88.6135 215.013 88.8732 214.619 88.8607H213.265C212.856 88.8607 212.635 88.8607 212.635 88.3601C212.616 88.2255 212.616 88.0879 212.635 87.9533C221.548 66.7082 221.579 66.7082 221.579 66.677C221.667 66.339 221.982 66.1012 222.335 66.1138H223.248C223.601 66.1012 223.916 66.339 224.004 66.677L233.042 87.9846C233.058 88.1098 233.058 88.2349 233.042 88.3601C233.042 88.7043 232.759 88.8607 232.349 88.8607H231.027C230.655 88.8545 230.328 88.6167 230.208 88.2662L228.413 83.8858H217.296L215.47 88.2349ZM218.304 81.2888H227.342L222.839 70.0874L218.304 81.2888Z" fill="white"></path><path d="M242.174 86.2664H253.357C253.704 86.2664 253.987 86.548 253.987 86.8922C253.987 86.9109 253.987 86.9329 253.984 86.9548V88.2063C253.984 88.5661 253.685 88.8634 253.323 88.8634H240.222C240.187 88.8696 240.153 88.8728 240.118 88.8728C239.79 88.8728 239.52 88.6037 239.52 88.2783C239.52 88.2438 239.523 88.2094 239.529 88.175V66.7703C239.529 66.4105 239.828 66.1133 240.19 66.1133C240.209 66.1133 240.231 66.1133 240.253 66.1164H241.548C241.894 66.1164 242.177 66.398 242.177 66.7422C242.177 66.761 242.177 66.7829 242.174 66.8048V86.2664Z" fill="white"></path><path d="M114.506 9.66874C114.5 9.62494 114.5 9.58426 114.5 9.54046C114.5 8.92407 115.01 8.41406 115.634 8.41406C115.656 8.41406 115.681 8.41719 115.703 8.41719H133.968C141.36 8.65499 147.274 14.8377 147.132 22.1843C147.309 29.4401 141.46 35.5602 134.157 35.7636H125.434V49.1865C125.434 50.0313 124.993 50.4381 124.111 50.4381H115.703C114.853 50.4381 114.506 50.0313 114.506 49.1865V9.66874ZM125.434 17.3658V26.7524H131.733C134.164 26.7211 136.148 24.7249 136.148 22.3094C136.148 22.2249 136.148 22.1436 136.141 22.0591C136.23 19.5591 134.249 17.4221 131.733 17.3032L125.434 17.3658Z" fill="white"></path><path d="M157.241 9.66952C157.238 9.63823 157.238 9.60694 157.238 9.57565C157.238 8.94049 157.764 8.41797 158.403 8.41797H177.333C184.914 8.65576 190.985 14.9949 190.844 22.5292C190.62 27.307 188.006 31.6687 183.884 34.1374L192.103 49.1873C192.207 49.3218 192.264 49.4876 192.264 49.6597C192.264 50.0884 191.908 50.442 191.477 50.442C191.455 50.442 191.433 50.442 191.41 50.4388H181.113C180.294 50.4388 180.01 50.2198 179.569 49.2498L172.767 36.4527H168.232V49.1873C168.238 49.2311 168.242 49.2749 168.242 49.3218C168.242 49.9382 167.728 50.4482 167.108 50.4482C167.061 50.4482 167.017 50.4451 166.973 50.4388H158.438C157.619 50.4388 157.241 50.0321 157.241 49.1873V9.66952ZM168.232 17.1475V27.379H174.531C177.283 27.3101 179.506 25.0448 179.506 22.3102C179.459 19.5443 177.22 17.2633 174.436 17.1475H168.232Z" fill="white"></path><path d="M221.611 7.79297H221.642C233.597 7.79297 243.435 17.5676 243.435 29.4448C243.435 41.322 233.597 51.0967 221.642 51.0967C209.7 51.0967 199.865 41.3408 199.85 29.4761V29.4448C199.85 17.5801 209.669 7.80861 221.611 7.79297ZM221.611 40.6462C227.528 40.6337 232.391 35.7933 232.391 29.9142C232.391 29.7577 232.387 29.6013 232.381 29.4448C232.381 23.575 227.519 18.744 221.611 18.744C215.703 18.744 210.84 23.575 210.84 29.4448C210.834 29.6106 210.828 29.7796 210.828 29.9454C210.828 35.8246 215.693 40.6681 221.611 40.6775V40.6462Z" fill="white"></path><path d="M254.834 9.7321C254.831 9.69142 254.828 9.64762 254.828 9.60694C254.828 8.95301 255.367 8.41797 256.025 8.41797H274.139C280.831 8.43361 286.327 13.9092 286.327 20.558V20.5893C286.377 23.2332 285.47 25.8083 283.776 27.8483C286.557 30.4109 288.163 33.9997 288.216 37.7669C288.185 44.6473 282.544 50.3199 275.619 50.4388H256.063C256.019 50.4451 255.974 50.4451 255.93 50.4451C255.326 50.4451 254.828 49.9507 254.828 49.35C254.828 49.3187 254.831 49.2843 254.834 49.2498V9.7321ZM271.116 16.7408H265.888V25.0323H271.021C271.125 25.0417 271.232 25.0448 271.336 25.0448C273.566 25.0448 275.399 23.2238 275.399 21.0086V20.8678C275.399 18.6025 273.522 16.7377 271.242 16.7377C271.201 16.7377 271.157 16.7408 271.116 16.7408ZM272.533 32.6042H265.888V41.9908H272.533C275.043 41.8563 277.014 39.7318 276.942 37.2349C276.901 34.8038 274.974 32.7826 272.533 32.6042Z" fill="white"></path><path d="M301.443 9.67109C301.443 8.8263 301.821 8.41954 302.64 8.41954H311.174C311.219 8.41329 311.263 8.41016 311.31 8.41016C311.93 8.41016 312.444 8.92016 312.444 9.53655C312.444 9.58349 312.44 9.62729 312.434 9.67109V49.1888C312.44 49.2327 312.444 49.2765 312.444 49.3234C312.444 49.9398 311.93 50.4498 311.31 50.4498C311.263 50.4498 311.219 50.4467 311.174 50.4404H302.64C301.821 50.4404 301.443 50.0336 301.443 49.1888V9.67109Z" fill="white"></path><path d="M326.606 9.67032C326.597 9.614 326.594 9.55768 326.594 9.50136C326.594 8.90061 327.091 8.40625 327.696 8.40625C327.753 8.40625 327.809 8.40938 327.866 8.41877H358.76C358.807 8.41251 358.851 8.40938 358.898 8.40938C359.503 8.40938 360.001 8.90374 360.001 9.50449C360.001 9.56081 359.998 9.61713 359.988 9.67032V16.8667C359.994 16.9105 359.994 16.9544 359.994 16.995C359.994 17.6145 359.484 18.1214 358.861 18.1214C358.829 18.1214 358.795 18.1214 358.76 18.1183H348.651V49.1881C348.657 49.235 348.66 49.2788 348.66 49.3257C348.66 49.9421 348.147 50.4521 347.527 50.4521C347.47 50.4521 347.413 50.449 347.36 50.4396H339.14C339.096 50.4459 339.052 50.449 339.005 50.449C338.384 50.449 337.871 49.939 337.871 49.3226C337.871 49.2757 337.874 49.2319 337.881 49.1881V18.1183H327.866C327.822 18.1246 327.778 18.1277 327.731 18.1277C327.11 18.1277 326.597 17.6177 326.597 17.0013C326.597 16.9544 326.6 16.9105 326.606 16.8667V9.67032Z" fill="white"></path></g><defs><clipPath id="clip0_1075_389"><rect width="360" height="97" fill="white"></rect></clipPath></defs></svg>