<svg xmlns="http://www.w3.org/2000/svg" width="408" height="408" viewBox="0 0 408 408" fill="none"><path fill-rule="evenodd" clip-rule="evenodd" d="M2 203.678C2 92.2943 92.2943 2 203.678 2C315.062 2 405.356 92.2943 405.356 203.678C405.356 315.062 315.062 405.356 203.678 405.356C92.2943 405.356 2 315.062 2 203.678ZM203.678 0C91.1897 0 0 91.1897 0 203.678C0 316.166 91.1897 407.356 203.678 407.356C316.166 407.356 407.356 316.166 407.356 203.678C407.356 91.1897 316.166 0 203.678 0ZM203.678 29.0234C107.219 29.0234 29.0234 107.219 29.0234 203.678C29.0234 300.137 107.219 378.332 203.678 378.332C300.137 378.332 378.332 300.137 378.332 203.678C378.332 107.219 300.137 29.0234 203.678 29.0234ZM27.0234 203.678C27.0234 106.114 106.114 27.0234 203.678 27.0234C301.241 27.0234 380.332 106.114 380.332 203.678C380.332 301.241 301.241 380.332 203.678 380.332C106.114 380.332 27.0234 301.241 27.0234 203.678ZM56.0488 203.679C56.0488 122.145 122.145 56.0488 203.679 56.0488C285.213 56.0488 351.31 122.145 351.31 203.679C351.31 285.213 285.213 351.31 203.679 351.31C122.145 351.31 56.0488 285.213 56.0488 203.679ZM203.679 54.0488C121.041 54.0488 54.0488 121.041 54.0488 203.679C54.0488 286.318 121.041 353.31 203.679 353.31C286.318 353.31 353.31 286.318 353.31 203.679C353.31 121.041 286.318 54.0488 203.679 54.0488ZM203.679 83.0713C137.07 83.0713 83.0723 137.069 83.0723 203.678C83.0723 270.287 137.07 324.285 203.679 324.285C270.288 324.285 324.286 270.287 324.286 203.678C324.286 137.069 270.288 83.0713 203.679 83.0713ZM81.0723 203.678C81.0723 135.964 135.965 81.0713 203.679 81.0713C271.393 81.0713 326.286 135.964 326.286 203.678C326.286 271.392 271.393 326.285 203.679 326.285C135.965 326.285 81.0723 271.392 81.0723 203.678ZM110.095 203.678C110.095 151.993 151.993 110.095 203.678 110.095C255.362 110.095 297.261 151.993 297.261 203.678C297.261 255.362 255.362 297.261 203.678 297.261C151.993 297.261 110.095 255.362 110.095 203.678ZM203.678 108.095C150.889 108.095 108.095 150.889 108.095 203.678C108.095 256.467 150.889 299.261 203.678 299.261C256.467 299.261 299.261 256.467 299.261 203.678C299.261 150.889 256.467 108.095 203.678 108.095ZM203.677 137.118C166.917 137.118 137.117 166.918 137.117 203.677C137.117 240.437 166.917 270.237 203.677 270.237C240.436 270.237 270.236 240.437 270.236 203.677C270.236 166.918 240.436 137.118 203.677 137.118ZM135.117 203.677C135.117 165.813 165.812 135.118 203.677 135.118C241.541 135.118 272.236 165.813 272.236 203.677C272.236 241.542 241.541 272.237 203.677 272.237C165.812 272.237 135.117 241.542 135.117 203.677ZM203.679 164.144C181.844 164.144 164.144 181.844 164.144 203.679C164.144 225.514 181.844 243.215 203.679 243.215C225.514 243.215 243.215 225.514 243.215 203.679C243.215 181.844 225.514 164.144 203.679 164.144ZM162.144 203.679C162.144 180.74 180.74 162.144 203.679 162.144C226.619 162.144 245.215 180.74 245.215 203.679C245.215 226.619 226.619 245.215 203.679 245.215C180.74 245.215 162.144 226.619 162.144 203.679Z" fill="url(#paint0_linear_5_49)"></path><defs><linearGradient id="paint0_linear_5_49" x1="203.678" y1="0" x2="203.678" y2="407.356" gradientUnits="userSpaceOnUse"><stop stop-color="#393449"></stop><stop offset="1" stop-color="#393449" stop-opacity="0"></stop></linearGradient></defs></svg>