<svg xmlns="http://www.w3.org/2000/svg" width="35" height="38" viewBox="0 0 35 38" fill="none"><g clip-path="url(#clip0_79_543)"><path d="M32.7939 30.2148C31.7722 32.9858 29.2178 35.0005 25.7312 35.9278C22.2479 36.8543 17.9229 36.6607 13.6038 35.0682C9.28461 33.4757 5.86915 30.8152 3.82107 27.8493C1.77103 24.8805 1.1359 21.6898 2.15762 18.9188C3.17933 16.1478 5.73374 14.1331 9.22034 13.2058C12.7037 12.2793 17.0287 12.4729 21.3478 14.0654C25.6669 15.6579 29.0824 18.3184 31.1305 21.2843C33.1805 24.2531 33.8156 27.4438 32.7939 30.2148Z" stroke="url(#paint0_linear_79_543)" stroke-width="2"></path><path d="M17.0034 7.29494C18.666 7.90797 20.5108 7.05711 21.1238 5.39449C21.7368 3.73187 20.886 1.88708 19.2233 1.27405C17.5607 0.661022 15.7159 1.51188 15.1029 3.17451C14.4899 4.83713 15.3407 6.68191 17.0034 7.29494Z" fill="url(#paint1_linear_79_543)"></path><path d="M29.0444 11.7344C30.707 12.3474 32.5518 11.4966 33.1648 9.83394C33.7778 8.17132 32.927 6.32654 31.2643 5.71351C29.6017 5.10048 27.7569 5.95134 27.1439 7.61396C26.5309 9.27658 27.3817 11.1214 29.0444 11.7344Z" fill="url(#paint2_linear_79_543)"></path></g><defs><linearGradient id="paint0_linear_79_543" x1="34.2745" y1="24.5668" x2="0.676986" y2="24.5668" gradientUnits="userSpaceOnUse"><stop stop-color="#F0BA0B"></stop><stop offset="0.989583" stop-color="#70FF01"></stop></linearGradient><linearGradient id="paint1_linear_79_543" x1="21.1238" y1="5.3945" x2="15.103" y2="3.17454" gradientUnits="userSpaceOnUse"><stop stop-color="#DFFF1A"></stop><stop offset="0.989583" stop-color="#70FF01"></stop></linearGradient><linearGradient id="paint2_linear_79_543" x1="33.1648" y1="9.83396" x2="27.144" y2="7.61398" gradientUnits="userSpaceOnUse"><stop stop-color="#DFFF1A"></stop><stop offset="0.989583" stop-color="#72FE01"></stop></linearGradient><clipPath id="clip0_79_543"><rect width="35" height="37" fill="white" transform="translate(0 0.5)"></rect></clipPath></defs></svg>