<svg xmlns="http://www.w3.org/2000/svg" width="40" height="22" viewBox="0 0 40 22" fill="none"><g clip-path="url(#clip0_79_547)"><path fill-rule="evenodd" clip-rule="evenodd" d="M37.7114 2.6863C30.882 16.7283 16.3466 22.9305 2.31851 15.7751C1.85151 15.5369 1.27922 15.7221 1.04 16.1834C0.801118 16.6527 0.985828 17.2252 1.45283 17.4634C16.4894 25.1406 32.099 18.5628 39.4195 3.51715C39.6488 3.04821 39.452 2.47619 38.9805 2.24617C38.5093 2.0242 37.9406 2.21736 37.7114 2.6863Z" fill="url(#paint0_linear_79_547)"></path><path d="M13.6158 9.40233C15.1424 9.33827 16.3294 8.04979 16.267 6.52441C16.2047 4.99902 14.9166 3.8144 13.39 3.87846C11.8634 3.94251 10.6764 5.23099 10.7387 6.75638C10.8011 8.28177 12.0892 9.46639 13.6158 9.40233Z" fill="url(#paint1_linear_79_547)"></path><path d="M24.9403 5.98478C26.4371 5.92197 27.601 4.65867 27.5398 3.16309C27.4787 1.6675 26.2157 0.506031 24.719 0.568838C23.2222 0.631645 22.0584 1.89495 22.1195 3.39053C22.1807 4.88611 23.4436 6.04759 24.9403 5.98478Z" fill="url(#paint2_linear_79_547)"></path></g><defs><linearGradient id="paint0_linear_79_547" x1="39.8335" y1="10.8692" x2="0.765091" y2="12.4663" gradientUnits="userSpaceOnUse"><stop stop-color="#EEBA0B"></stop><stop offset="0.989583" stop-color="#70FF01"></stop></linearGradient><linearGradient id="paint1_linear_79_547" x1="16.267" y1="6.5244" x2="10.7385" y2="6.75039" gradientUnits="userSpaceOnUse"><stop stop-color="#DFFF1A"></stop><stop offset="0.989583" stop-color="#44E5E7"></stop></linearGradient><linearGradient id="paint2_linear_79_547" x1="27.5398" y1="3.16308" x2="22.1193" y2="3.38465" gradientUnits="userSpaceOnUse"><stop stop-color="#DFFF1A"></stop><stop offset="0.989583" stop-color="#44E5E7"></stop></linearGradient><clipPath id="clip0_79_547"><rect width="40" height="21" fill="white" transform="translate(0 0.5)"></rect></clipPath></defs></svg>