<svg xmlns="http://www.w3.org/2000/svg" width="36" height="46" viewBox="0 0 36 46" fill="none"><g clip-path="url(#clip0_79_553)"><path d="M9.55127 4.96462C11.2479 9.04729 12.2469 16.0592 11.2867 20.5552C10.8585 22.5603 9.88444 23.7251 8.37018 24.9823C6.84718 26.2468 4.40315 26.6095 2.58733 27.3223C1.87531 27.6018 1.38835 27.9953 2.48113 27.8245C3.90528 27.6019 5.30192 27.291 6.75714 27.2515C8.08008 27.2157 9.47518 27.1724 10.7968 27.2926C12.062 27.4076 13.2126 28.0489 14.344 28.6059C16.8916 29.86 19.2439 31.5574 20.998 33.8965C22.6047 36.0388 23.6183 38.689 24.5169 41.1871C24.757 41.8546 25.2214 42.6956 25.192 43.4128C25.1713 43.9172 25.2992 44.9761 25.2903 43.7858C25.2711 41.2221 24.2022 38.862 23.8347 36.3748C23.5541 34.4756 23.4258 32.698 23.7827 30.7974C24.2362 28.3826 24.8766 25.5729 26.9047 24.0506C27.8451 23.3448 28.7032 22.5009 29.634 21.7696C30.6525 20.9695 32.1043 20.3799 33.3161 19.944C33.8161 19.7642 34.3161 19.5843 34.8162 19.4044C35.3784 19.2022 33.6284 19.1941 33.0445 19.0395C31.8734 18.7294 30.6785 18.58 29.4969 18.3481C28.8313 18.2175 25.9543 18.3501 23.7602 17.8087C21.516 17.2549 19.9803 16.5909 18.2632 15.5356C16.6575 14.5486 15.9579 12.6631 14.6106 11.3043C11.8819 8.55228 9.62995 5.18335 8.31944 1.54004" stroke="#70FF01" stroke-width="2" stroke-linecap="round"></path></g><defs><clipPath id="clip0_79_553"><rect width="36" height="45" fill="white" transform="translate(0 0.5)"></rect></clipPath></defs></svg>