<svg xmlns="http://www.w3.org/2000/svg" width="21" height="28" viewBox="0 0 21 28" fill="none"><g clip-path="url(#clip0_79_551)"><path d="M13.5081 3.7995C12.7781 6.1761 10.6627 9.55732 8.58619 11.1397C7.66012 11.8454 6.79581 11.99 5.65467 11.9768C4.50693 11.9635 3.27464 11.2254 2.19698 10.8676C1.7744 10.7273 1.41138 10.7184 1.9655 11.0448C2.68765 11.4701 3.42976 11.8472 4.09891 12.3627C4.70723 12.8312 5.35074 13.323 5.90141 13.8582C6.42855 14.3705 6.71162 15.0672 7.01694 15.7206C7.70446 17.192 8.14187 18.7826 8.07554 20.4304C8.01479 21.9395 7.50147 23.4502 6.99201 24.8533C6.85588 25.2282 6.75721 25.7598 6.48164 26.0575C6.28784 26.2669 5.95808 26.7691 6.38944 26.2539C7.31851 25.1443 7.70091 23.7382 8.44531 22.534C9.0137 21.6145 9.60621 20.8031 10.462 20.1162C11.5493 19.2435 12.8652 18.2694 14.3344 18.3566C15.0157 18.3971 15.7104 18.3481 16.3967 18.3741C17.1476 18.4026 18.0165 18.6801 18.7211 18.9359C19.0118 19.0415 19.3026 19.1471 19.5934 19.2527C19.9203 19.3714 19.1359 18.7276 18.9298 18.4475C18.5163 17.8858 18.0333 17.3843 17.5866 16.8524C17.3348 16.5527 15.9919 15.5572 15.2028 14.5217C14.3957 13.4625 13.9476 12.6151 13.5611 11.5331C13.1997 10.5211 13.5746 9.45429 13.4654 8.37701C13.2443 6.19513 13.4634 3.92236 14.2065 1.87598" stroke="#70FF01" stroke-width="2" stroke-linecap="round"></path></g><defs><clipPath id="clip0_79_551"><rect width="21" height="27" fill="white" transform="translate(0 0.5)"></rect></clipPath></defs></svg>