<svg xmlns="http://www.w3.org/2000/svg" width="1544" height="566" viewBox="0 0 1544 566" fill="none"><g clip-path="url(#clip0_1073_203)"><path d="M553.699 0H636.699C636.699 42.5333 636.699 85.0667 636.699 127.6C641.999 121 648.299 115.1 655.499 110.6C670.399 101.1 688.499 97.9 705.899 99.2C717.199 100 728.399 102.9 738.399 108.3C748.099 113.5 756.399 121.1 762.699 130.1C774.999 147.7 779.599 169.5 779.799 190.7C779.799 240.7 779.799 290.733 779.799 340.8C751.999 340.8 724.199 340.8 696.399 340.8C696.399 297.4 696.399 254.1 696.399 210.7C696.199 201.7 694.499 192 688.699 184.8C684.499 179.5 677.899 176.5 671.199 176C662.899 175.1 654.099 177.3 647.999 183.2C640.699 190.3 637.799 200.8 637.199 210.7C636.999 218.2 637.199 225.7 637.099 233.2C637.099 269.067 637.099 304.933 637.099 340.8C609.299 340.8 581.499 340.8 553.699 340.8C553.699 227.2 553.699 113.6 553.699 0Z" fill="white"></path><path d="M1445.1 0H1544V0.1C1514.5 71.4 1485 142.7 1455.5 214C1422.5 214 1389.53 214 1356.6 214C1386.1 142.7 1415.6 71.3 1445.1 0Z" fill="white"></path><path fill-rule="evenodd" clip-rule="evenodd" d="M368.9 99.7001C389.5 97.2001 411.2 100.7 428.9 111.9C435.2 115.9 440.9 120.8 445.4 126.7C445.4 119.367 445.4 112 445.4 104.6C472.267 104.6 499.134 104.6 526 104.6C526 183.333 526 262.033 526 340.7C499.1 340.8 472.3 340.8 445.4 340.8C445.4 333.4 445.4 326.033 445.4 318.7C438.9 327.5 429.9 334.3 420 338.9C400 348.1 376.9 348.8 355.7 343.7C336.1 339 318.1 328.4 304.2 313.9C288.7 297.9 278.1 277.3 273.1 255.7C267.2 230.5 268.1 203.6 276.5 179.1C283.7 157.8 296.5 138.2 313.8 123.8C329.4 110.7 348.7 102.1 368.9 99.7001ZM392.4 174.8C383.6 175.9 375 179.3 368 184.8C361.2 190.2 355.9 197.5 352.9 205.6C348.2 218.5 349 233.4 355.3 245.7C359.7 254.1 366.6 261.1 374.9 265.5C391.2 274.4 412.6 273.3 427.7 262.2C435.7 256.4 441.7 248.1 444.8 238.7C448.9 226.2 448 212.1 442 200.3C437.4 191.4 429.9 183.9 420.8 179.5C412.1 175.1 402 173.6 392.4 174.8Z" fill="white"></path><path fill-rule="evenodd" clip-rule="evenodd" d="M910.701 99.501C933.601 97.501 957.001 100.901 978.001 110.301C997.701 119.001 1015 133.101 1027.4 150.701C1039.3 167.701 1046.6 187.701 1048.8 208.301C1051.4 232.201 1047.7 256.901 1037.1 278.601C1027.9 297.701 1013.4 314.201 995.701 325.801C979.101 336.801 959.901 343.601 940.201 345.901C915.401 348.801 889.801 345.401 867.101 334.801C848.201 326.101 831.601 312.401 819.601 295.401C807.901 278.901 800.601 259.301 798.201 239.201C795.401 216.101 798.501 192.201 808.001 170.901C816.401 151.801 830.001 135.101 846.901 122.901C865.501 109.401 887.901 101.501 910.701 99.501ZM916.101 175.901C901.901 177.801 888.801 186.801 882.101 199.501C875.601 211.601 874.601 226.501 879.101 239.501C882.201 248.301 887.901 256.101 895.401 261.601C910.901 273.001 933.601 273.501 949.701 262.801C957.501 257.601 963.601 249.901 967.001 241.201C972.101 228.301 971.501 213.201 965.301 200.801C961.201 192.401 954.401 185.401 946.201 181.001C937.101 176.001 926.301 174.401 916.101 175.901Z" fill="white"></path><path fill-rule="evenodd" clip-rule="evenodd" d="M1177.8 99.5002C1201.1 97.5002 1225 101.2 1246.2 111.1C1265.5 119.9 1282.3 134 1294.4 151.5C1306.1 168.3 1313.2 188.2 1315.4 208.6C1317.9 232.2 1314.2 256.5 1304 277.9C1294.9 297 1280.5 313.6 1262.9 325.4C1245.3 337.3 1224.6 344.3 1203.5 346.2C1180.1 348.5 1155.9 345 1134.4 335.2C1114.9 326.3 1097.8 312.2 1085.6 294.7C1074 278 1066.8 258.3 1064.5 238.1C1062 215.2 1065.2 191.5 1074.7 170.5C1083.3 151.2 1097.2 134.3 1114.4 122.2C1133 109 1155.2 101.3 1177.8 99.5002ZM1182.6 175.9C1167.9 177.8 1154.5 187.4 1148 200.8C1141.8 213.1 1141.2 227.9 1146.1 240.8C1149.4 249.4 1155.2 257 1162.8 262.3C1178.5 273.1 1200.7 273.2 1216.5 262.6C1224.3 257.4 1230.3 249.6 1233.7 240.9C1238.6 228 1238 213 1231.8 200.7C1227.6 192.3 1220.9 185.3 1212.7 180.9C1203.5 176 1192.8 174.4 1182.6 175.9Z" fill="white"></path><path d="M0 104.602C30.1333 104.602 60.2667 104.602 90.4 104.602C108.5 150.802 126.5 196.902 144.6 243.102C162.8 196.902 180.9 150.802 199.2 104.602C228.5 104.602 257.9 104.602 287.3 104.602C242.567 212.535 197.8 320.468 153 428.402C123.533 428.402 94.0333 428.402 64.5 428.402C76.5667 399.802 88.6333 371.202 100.7 342.602C67.1667 263.335 33.6 184.035 0 104.702V104.602Z" fill="white"></path><path d="M1374.8 235.2C1386.5 233.6 1398.7 235.6 1409.1 241.3C1423.4 249 1433.6 263.8 1436 279.9C1439 298.6 1432.1 318.6 1417.9 331.1C1403.9 343.7 1383.3 348 1365.3 342.9C1349.6 338.6 1336.4 326.6 1330.4 311.5C1323.2 293.8 1326 272.6 1337.5 257.3C1346.2 245.3 1360 237.1 1374.8 235.2Z" fill="white"></path><path d="M689.799 362.401C701.399 360.201 713.999 366.501 719.199 377.201C724.199 386.701 722.299 399.101 715.099 406.901C707.399 415.701 693.799 418.701 683.199 413.701C672.999 409.201 666.099 398.001 667.199 386.801C668.099 374.801 677.999 364.301 689.799 362.401Z" fill="white"></path><path d="M588.899 378.003C598.899 368.503 612.699 364.003 626.299 363.203C635.999 362.703 646.099 363.503 655.099 367.603C655.099 381.069 655.099 394.569 655.099 408.103C648.999 405.303 641.999 404.203 635.399 405.303C630.399 406.203 625.699 409.003 623.199 413.403C620.499 417.903 620.199 423.303 620.399 428.403C631.333 428.403 642.299 428.403 653.299 428.403C653.299 441.536 653.299 454.669 653.299 467.803C642.299 467.803 631.333 467.803 620.399 467.803C620.399 499.269 620.399 530.769 620.399 562.303C604.133 562.303 587.866 562.303 571.599 562.303C571.599 530.769 571.599 499.269 571.599 467.803C565.666 467.803 559.699 467.803 553.699 467.803C553.699 454.669 553.699 441.536 553.699 428.403C559.699 428.403 565.666 428.403 571.599 428.403C571.499 420.803 571.899 413.103 573.699 405.603C576.099 395.303 581.099 385.303 588.899 378.003Z" fill="white"></path><path d="M813.099 426.003C822.899 423.703 833.599 424.303 843.099 427.903C851.999 431.303 859.599 438.103 864.099 446.503C869.599 456.403 871.399 467.903 871.199 479.203C871.199 506.869 871.199 534.569 871.199 562.303C854.866 562.303 838.565 562.303 822.299 562.303C822.299 538.036 822.299 513.769 822.299 489.503C822.199 484.203 821.199 478.703 817.899 474.503C811.799 467.003 798.599 467.403 792.899 475.203C789.499 479.603 788.399 485.303 788.399 490.703C788.399 514.569 788.399 538.436 788.399 562.303C771.999 562.303 755.632 562.303 739.299 562.303C739.299 517.636 739.299 473.003 739.299 428.403C755.632 428.403 771.965 428.403 788.299 428.403C788.365 433.536 788.399 438.669 788.399 443.803C793.799 434.903 802.899 428.303 813.099 426.003Z" fill="white"></path><path fill-rule="evenodd" clip-rule="evenodd" d="M931.399 426.801C942.099 423.901 953.699 423.801 964.299 427.201C972.899 429.901 980.899 435.101 986.199 442.501C986.199 437.767 986.199 433.067 986.199 428.401C1002.27 428.401 1018.33 428.401 1034.4 428.401C1034.4 473.001 1034.4 517.634 1034.4 562.301C1018.33 562.301 1002.27 562.301 986.199 562.301C986.199 557.567 986.199 552.867 986.199 548.201C977.899 559.401 963.999 565.301 950.299 566.001H944.599C934.199 565.501 923.799 562.301 914.999 556.601C899.799 546.801 889.799 530.101 886.299 512.501C881.699 489.801 886.299 464.501 901.399 446.401C909.099 437.101 919.699 430.001 931.399 426.801ZM954.999 468.701C951.499 469.401 948.099 470.701 944.999 472.601C936.499 477.801 931.499 488.001 932.599 497.901C933.399 507.901 940.499 517.001 949.899 520.501C960.599 524.701 973.999 521.601 981.299 512.601C988.899 503.801 989.599 490.001 983.099 480.501C977.199 471.301 965.599 466.701 954.999 468.701Z" fill="white"></path><path d="M1127.9 426.101C1137.9 423.701 1148.6 424.201 1158.2 427.801C1167.3 431.201 1174.9 438.101 1179.6 446.601C1185 456.501 1186.7 468.001 1186.6 479.201C1186.6 506.867 1186.6 534.567 1186.6 562.301C1170.27 562.301 1153.93 562.301 1137.6 562.301C1137.6 537.834 1137.6 513.367 1137.6 488.901C1137.5 482.801 1135.9 476.101 1130.9 472.201C1124.2 467.201 1113.5 468.201 1108.3 475.001C1104.6 479.801 1103.6 486.001 1103.7 491.901C1103.7 515.367 1103.7 538.834 1103.7 562.301C1087.37 562.301 1071.03 562.301 1054.7 562.301C1054.7 517.634 1054.7 473.001 1054.7 428.401C1071.03 428.401 1087.37 428.401 1103.7 428.401C1103.7 433.534 1103.7 438.667 1103.7 443.801C1109 435.001 1117.9 428.501 1127.9 426.101Z" fill="white"></path><path d="M1240.8 430.9C1260.6 422.5 1284 422.4 1303.5 431.6C1303.5 446.4 1303.5 461.234 1303.5 476.1C1294.8 470.3 1284.2 467.5 1273.9 468.9C1266.2 470 1258.7 473.7 1254.2 480.1C1247.3 489.7 1247.9 504.1 1256 512.9C1261 518.4 1268.4 521.3 1275.8 521.9C1285.6 522.8 1295.5 519.8 1303.5 514C1303.5 528.867 1303.5 543.7 1303.5 558.5C1294.1 563.3 1283.6 565.7 1273.1 566H1268.3C1259.6 565.6 1250.8 564.1 1242.6 560.9C1231.7 556.7 1221.8 549.7 1214.6 540.4C1208.1 532.3 1203.8 522.6 1201.7 512.5C1197.3 491.8 1200.8 468.9 1213.9 451.8C1220.8 442.6 1230.2 435.4 1240.8 430.9Z" fill="white"></path><path fill-rule="evenodd" clip-rule="evenodd" d="M1339.5 439.201C1356.1 426.301 1378.4 422.101 1398.8 426.101C1414.7 429.001 1429.7 437.901 1439.1 451.101C1450.9 467.201 1454.5 488.101 1452.4 507.701C1421.67 507.701 1390.9 507.701 1360.1 507.701C1360.6 513.701 1363.7 519.401 1368.5 523.001C1375.3 528.101 1384.6 529.001 1392.8 526.901C1398.4 525.401 1403 521.501 1406.4 517.001C1420.33 522.334 1434.27 527.701 1448.2 533.101C1441.6 544.301 1431.6 553.501 1419.8 558.901C1409.6 563.601 1398.3 565.601 1387.1 566.001H1380.7C1363.7 565.401 1346.5 560.201 1333.8 548.601C1325.4 541.001 1319.3 530.901 1316 520.101C1312.7 509.201 1311.8 497.601 1313.1 486.401C1315.1 467.901 1324.7 450.401 1339.5 439.201ZM1369.4 465.401C1364.3 468.401 1361 473.901 1360.4 479.801C1375.47 479.801 1390.53 479.801 1405.6 479.801C1405 473.201 1400.9 467.101 1395 464.301C1387 460.401 1377 460.701 1369.4 465.401Z" fill="white"></path><path d="M670.1 428.402C686.433 428.402 702.733 428.402 719 428.402C719.066 473.002 719.066 517.636 719 562.302C702.733 562.302 686.433 562.302 670.1 562.302C670.1 517.636 670.1 473.002 670.1 428.402Z" fill="white"></path></g><defs><clipPath id="clip0_1073_203"><rect width="1544" height="566" fill="white"></rect></clipPath></defs></svg>