<svg xmlns="http://www.w3.org/2000/svg" width="467" height="140" viewBox="0 0 467 140" fill="none"><g clip-path="url(#clip0_1075_362)"><path d="M69.8 139.698C108.3 139.698 139.6 108.498 139.6 69.8977C139.6 31.3977 108.4 0.0976562 69.8 0.0976562C31.3 0.0976562 0 31.2977 0 69.8977C0 108.398 31.2 139.698 69.8 139.698Z" fill="white"></path><path d="M123.801 26.2969C119.001 27.2969 114.301 28.5969 110.501 29.4969C101.801 31.3969 93.7008 38.0969 92.0008 50.1969C90.4008 61.0969 94.1008 65.6969 92.5008 78.3969C89.7008 100.497 68.5008 108.097 58.6008 112.697C52.9008 115.297 39.0008 121.397 28.3008 126.097C39.9008 134.697 54.2008 139.697 69.7008 139.697C108.301 139.697 139.501 108.497 139.501 69.8969C139.501 53.4969 133.801 38.3969 124.301 26.4969C124.201 26.3969 124.001 26.3969 123.801 26.2969Z" fill="url(#paint0_linear_1075_362)"></path><path d="M61.9 59.6C67.3 48 65.3 48 69.4 37C74.5 23.2 90.6 27.1 95 27.7C102.3 28.7 104.2 26.1 119.6 23.6C120.4 23.5 121.1 23.4 121.8 23.3C109 8.99999 90.5 0 69.8 0C42 0 18.1 16.2 6.8 39.7C29.8 45.5 54.7 57.9 61.9 59.6ZM46.7 12.2C48.7 12.5 58.6 24.8 60.4 56.2C60.4 56.2 47.7 53.2 45 46.6C42.8 41.3 45.7 34.2 46.7 12.2ZM124.3 26.3C124.3 26.4 124.4 26.4 124.4 26.4C124.2 26.4 124 26.4 123.9 26.3C124 26.3 124.1 26.3 124.3 26.3ZM0 69.9C0 64.3 0.600002 58.9 1.9 53.7C4.4 55.8 7.1 58.1 10 60.8C28.2 77.7 57.8 91 68.5 78.6C68.5 78.6 68.6 78.6 68.6 78.7C66.6 81.3 59.1 89.5 44.8 86.9L22.1 120.8C8.50001 108 0 90 0 69.9Z" fill="url(#paint1_linear_1075_362)"></path><path d="M410.001 58.3988C409.101 56.3988 407.701 54.2988 406.001 53.1988C404.001 51.6988 401.701 50.5988 398.601 49.6988C394.601 48.4988 388.901 48.1988 382.301 48.4988C380.601 48.4988 378.901 48.7988 377.101 48.7988C375.401 49.0988 373.701 49.0988 371.901 49.3988C370.501 49.6988 369.001 49.6988 367.901 49.9988V60.9988C369.001 60.6988 370.501 60.3988 371.601 60.0988C373.301 59.7988 375.001 59.4988 376.801 59.1988C378.501 58.8988 380.201 58.8988 382.001 58.5988C386.901 58.2988 390.901 58.2988 393.201 58.8988C394.901 59.1988 396.301 59.7988 397.201 60.3988C398.101 60.9988 398.601 61.8988 398.901 62.9988C399.201 63.8988 399.501 64.6988 399.501 65.8988V66.7988L398.601 66.4988C394.901 65.2988 390.301 64.9988 385.101 64.9988C380.801 64.9988 377.401 65.2988 374.501 65.8988C371.601 66.4988 369.301 67.3988 367.601 68.4988C365.901 69.6988 364.701 70.7988 364.201 72.2988C363.601 73.7988 363.301 75.1988 363.301 76.8988V77.7988C363.301 79.4988 363.601 81.2988 364.401 82.6988C365.001 84.1988 366.101 85.5988 367.801 87.0988C369.501 88.2988 371.801 89.3988 374.701 89.9988C377.601 90.8988 381.301 91.1988 385.601 91.1988C389.301 91.1988 392.801 90.8988 395.601 89.9988C398.501 89.3988 399.001 89.0988 401.601 87.9988C402.501 87.3988 404.701 87.0988 406.201 87.6988L408.801 89.1988H411.401V64.7988C411.401 63.2988 410.801 60.6988 410.001 58.3988ZM399.401 81.0988H398.801C395.101 82.2988 391.101 82.7988 386.501 82.7988C383.901 82.7988 381.601 82.7988 380.201 82.4988C378.801 82.1988 377.601 82.1988 376.801 81.5988C375.901 81.2988 375.401 80.6988 375.101 80.0988C374.801 79.4988 374.801 78.8988 374.801 78.3988C374.801 77.8988 374.801 77.4988 375.101 76.8988C375.401 76.2988 376.001 75.6988 376.501 75.3988C377.101 75.0988 378.201 74.4988 379.601 74.4988C381.001 74.1988 383.001 74.1988 385.301 74.1988C387.901 74.1988 390.201 74.1988 392.501 74.4988C394.501 74.7988 396.501 75.0988 398.501 75.6988H399.101V80.8988H399.401V81.0988Z" fill="white"></path><path d="M209.902 53.6969C208.202 51.9969 205.902 50.4969 203.002 49.2969C200.102 48.0969 196.402 47.5969 191.802 47.5969C189.502 47.5969 187.202 47.8969 185.202 48.1969C183.202 48.4969 181.202 49.0969 179.202 49.6969L178.302 49.9969V34.2969L168.902 28.7969H166.602V71.1969C166.602 74.0969 166.902 76.6969 167.702 78.9969C168.302 81.2969 169.702 83.3969 171.402 85.3969C173.102 87.0969 175.402 88.5969 178.302 89.7969C181.202 90.9969 184.902 91.4969 189.502 91.4969H191.802C196.402 91.4969 200.102 90.8969 203.002 89.7969C205.902 88.8969 208.402 87.4969 210.202 85.3969C211.902 83.6969 213.102 81.5969 213.902 78.9969C214.502 76.3969 215.002 73.7969 215.002 71.1969V67.9969C215.002 65.0969 214.702 62.4969 213.902 60.1969C213.002 57.4969 211.602 55.4969 209.902 53.6969ZM202.702 73.4969C202.702 74.9969 202.102 76.0969 201.302 77.2969C200.402 78.1969 199.302 78.9969 197.602 79.8969C195.902 80.4969 193.602 80.7969 190.702 80.7969C187.802 80.7969 185.502 80.4969 183.802 79.8969C182.102 79.2969 180.902 78.3969 180.102 77.2969C179.202 76.0969 179.002 74.9969 178.702 73.4969C178.702 72.2969 178.402 70.8969 178.402 69.3969V60.3969H178.702C180.402 59.7969 182.402 59.1969 184.402 58.8969C186.402 58.5969 188.402 58.2969 191.002 58.2969C193.902 58.2969 196.202 58.5969 197.602 59.1969C199.002 59.7969 200.502 60.6969 201.002 61.4969C201.902 62.6969 202.102 63.7969 202.402 65.2969C202.402 66.4969 202.702 67.8969 202.702 69.3969C202.702 70.8969 202.702 72.2969 202.702 73.4969Z" fill="white"></path><path d="M229.1 28.6992H228.5C225.9 28.6992 224.2 29.2992 223.3 30.1992C222.4 31.3992 221.9 32.4992 221.9 34.2992V35.1992C221.9 36.6992 222.5 38.0992 223.3 39.2992C224.2 40.4992 225.9 40.7992 228.5 40.7992H229.1C231.7 40.7992 233.4 40.1992 234.3 39.2992C235.2 38.0992 235.4 36.9992 235.4 35.1992V34.2992C235.4 32.7992 234.8 31.3992 234 30.1992C233.4 29.2992 231.6 28.6992 229.1 28.6992Z" fill="white"></path><path d="M222.801 49.3984V89.7984H234.801V54.8984L225.401 49.3984H222.801Z" fill="white"></path><path d="M281.7 68.7984C280.6 67.8984 279.1 67.0984 277.7 66.4984C276.3 65.8984 274.6 65.5984 272.8 65.2984C271.4 64.9984 269.7 64.6984 268.2 64.6984C266.8 64.6984 265.3 64.6984 264.5 64.3984C261.1 64.3984 258.8 64.0984 257.3 63.7984C255 63.1984 254.7 62.0984 254.7 60.8984C254.7 60.2984 254.7 59.9984 255 59.6984C255.3 59.3984 255.6 58.7984 256.4 58.4984C257 58.1984 258.1 57.8984 259.3 57.8984C260.4 57.5984 262.2 57.5984 264.5 57.5984C267.9 57.5984 271.4 57.8984 274.5 58.1984C277.4 58.4984 280.5 59.0984 283.7 59.6984V49.4984C281.1 48.8984 278.5 48.2984 275.7 47.9984C272.8 47.6984 269.7 47.3984 266.8 47.3984H263.9C259.6 47.3984 256.2 47.6984 253.3 48.5984C250.7 49.1984 248.4 50.2984 246.7 51.4984C245 52.6984 243.8 54.0984 243.3 55.5984C242.7 57.0984 242.4 58.7984 242.4 60.4984V61.3984C242.4 63.3984 242.7 65.1984 243.5 66.5984C244.4 68.0984 245.2 69.1984 246.4 70.0984C247.5 70.9984 249 71.7984 250.4 72.3984C251.8 72.9984 253.5 73.2984 255 73.5984C256.7 73.8984 258.1 74.1984 259.6 74.1984C261 74.1984 262.5 74.4984 263.6 74.4984C267 74.4984 269.3 74.7984 270.8 75.0984C273.1 75.3984 273.7 76.7984 273.7 77.9984C273.7 78.2984 273.7 78.8984 273.4 79.1984C273.1 79.4984 272.8 80.0984 272 80.3984C271.4 80.6984 270.3 80.9984 269.1 80.9984C268 81.2984 266.2 81.2984 264.2 81.2984C260.8 81.2984 256.8 80.9984 253 80.6984C249.6 80.3984 245.8 79.7984 242.7 78.9984V89.1984C245.8 89.7984 248.7 90.3984 251.9 90.6984C255 90.9984 258.8 91.2984 262.2 91.2984H264.5C268.8 91.2984 272.2 90.9984 274.8 90.0984C277.7 89.4984 279.7 88.3984 281.4 87.1984C283.1 85.9984 284 84.5984 284.8 83.0984C285.4 81.5984 285.9 79.8984 285.9 78.1984V77.2984C285.9 75.2984 285.6 73.4984 284.8 72.0984C283.7 70.8984 282.9 69.6984 281.7 68.7984Z" fill="white"></path><path d="M340.101 75.7984L329.801 49.3984H320.601L310.601 75.7984L300.301 49.3984H289.701V51.9984L305.201 89.7984H315.801L325.201 65.3984L334.601 89.7984H345.201L360.901 51.9984V49.3984H350.001L340.101 75.7984Z" fill="white"></path><path d="M465.5 60.6992C464.9 58.3992 463.5 56.2992 461.8 54.2992C460.1 52.5992 457.8 51.0992 454.6 49.8992C451.7 48.6992 448 48.1992 443.4 48.1992H441.4C436.8 48.1992 433.1 48.7992 430.2 49.8992C427.3 50.7992 425 52.1992 423.3 54.2992C421.6 55.9992 420.4 58.0992 419.6 60.6992C419 63.2992 418.5 65.8992 418.5 68.4992V110.899H421.1L430.5 105.399V89.6992L431.4 89.9992C433.4 90.5992 435.1 91.1992 437.4 91.4992C439.4 91.7992 441.7 92.0992 444 92.0992C448.6 92.0992 452.3 91.4992 455.2 90.3992C458.1 89.1992 460.4 88.0992 462.1 85.9992C463.8 84.2992 465 81.8992 465.8 79.5992C466.4 77.2992 466.9 74.6992 466.9 71.7992V68.5992C466.6 65.8992 466.3 63.2992 465.5 60.6992ZM454.6 74.3992C454.6 75.8992 454 76.9992 453.2 78.1992C452.3 79.3992 451.2 79.8992 449.8 80.4992C448.4 81.0992 446.1 81.3992 443.2 81.3992C440.9 81.3992 438.6 81.0992 436.6 80.7992C434.6 80.4992 432.6 79.8992 430.9 79.2992H430.6V70.2992C430.6 68.7992 430.6 67.6992 430.9 66.1992C430.9 64.6992 431.5 63.5992 432.3 62.3992C433.2 61.1992 434.3 60.6992 436 59.7992C437.7 59.1992 440 58.8992 442.9 58.8992C445.8 58.8992 448.1 59.1992 449.8 59.7992C451.5 60.3992 452.7 61.2992 453.5 62.3992C454.4 63.5992 454.9 64.6992 454.9 66.1992C454.9 67.3992 455.2 68.7992 455.2 70.2992C454.6 71.7992 454.6 73.1992 454.6 74.3992Z" fill="white"></path></g><defs><linearGradient id="paint0_linear_1075_362" x1="94.7918" y1="41.5407" x2="78.3278" y2="132.242" gradientUnits="userSpaceOnUse"><stop stop-color="#EA4B6C"></stop><stop offset="1" stop-color="#E42848"></stop></linearGradient><linearGradient id="paint1_linear_1075_362" x1="40.0775" y1="105.143" x2="76.4793" y2="2.3437" gradientUnits="userSpaceOnUse"><stop offset="0.00181229" stop-color="#335AA6"></stop><stop offset="1" stop-color="#3895D2"></stop></linearGradient><clipPath id="clip0_1075_362"><rect width="467" height="140" fill="white"></rect></clipPath></defs></svg>